<?xml version="1.0" encoding="UTF-8"?>
<svg height="20.0" width="519.5555555555555" xmlns="http://www.w3.org/2000/svg">
 <g>
  <rect x="10.0" y="-215.0" width="55.55555555555556" height="225.0" style="fill:cyan;opacity:0.3;"/>
  <text x="10.0" y="10.0" transform="matrix(6.123233995736766E-17,-1.0,1.0,6.123233995736766E-17,0.0,20.0)" style="font-size:1.0000000000000013px;">migration</text>
  <rect x="65.0" y="-3.0" width="55.55555555555556" height="13.0" style="fill:cyan;opacity:0.3;"/>
  <text x="65.0" y="10.0" transform="matrix(6.123233995736766E-17,-1.0,1.0,6.123233995736766E-17,55.0,75.0)" style="font-size:1.0000000000000013px;">conflict</text>
  <rect x="121.0" y="6.0" width="55.55555555555556" height="4.0" style="fill:cyan;opacity:0.3;"/>
  <text x="121.0" y="10.0" transform="matrix(6.123233995736766E-17,-1.0,1.0,6.123233995736766E-17,111.0,131.0)" style="font-size:1.0000000000000013px;">trafficking</text>
  <rect x="176.0" y="7.0" width="55.55555555555556" height="3.0" style="fill:cyan;opacity:0.3;"/>
  <text x="176.0" y="10.0" transform="matrix(6.123233995736766E-17,-1.0,1.0,6.123233995736766E-17,166.0,186.0)" style="font-size:1.0000000000000013px;">refugee</text>
  <rect x="232.0" y="8.0" width="55.55555555555556" height="2.0" style="fill:cyan;opacity:0.3;"/>
  <text x="232.0" y="10.0" transform="matrix(6.123233995736766E-17,-1.0,1.0,6.123233995736766E-17,222.0,242.0)" style="font-size:1.0000000000000013px;">poverty</text>
  <rect x="287.0" y="10.0" width="55.55555555555556" height="0.0" style="fill:cyan;opacity:0.3;"/>
  <text x="287.0" y="10.0" transform="matrix(6.123233995736766E-17,-1.0,1.0,6.123233995736766E-17,277.0,297.0)" style="font-size:1.0000000000000013px;">war</text>
  <rect x="343.0" y="10.0" width="55.55555555555556" height="0.0" style="fill:cyan;opacity:0.3;"/>
  <text x="343.0" y="10.0" transform="matrix(6.123233995736766E-17,-1.0,1.0,6.123233995736766E-17,333.0,353.0)" style="font-size:1.0000000000000013px;">Human migration</text>
  <rect x="398.0" y="10.0" width="55.55555555555556" height="0.0" style="fill:cyan;opacity:0.3;"/>
  <text x="398.0" y="10.0" transform="matrix(6.123233995736766E-17,-1.0,1.0,6.123233995736766E-17,388.0,408.0)" style="font-size:1.0000000000000013px;">forced labor,</text>
  <rect x="454.0" y="10.0" width="55.55555555555556" height="0.0" style="fill:cyan;opacity:0.3;"/>
  <text x="454.0" y="10.0" transform="matrix(6.123233995736766E-17,-1.0,1.0,6.123233995736766E-17,444.0,464.0)" style="font-size:1.0000000000000013px;">Human migration</text>
 </g>
</svg>
