<?xml version="1.0" encoding="UTF-8"?>
<svg height="20.0" width="519.3478260869565" xmlns="http://www.w3.org/2000/svg">
 <g>
  <rect x="10.0" y="-215.0" width="4.3478260869565215" height="225.0" style="fill:cyan;opacity:0.3;"/>
  <text x="10.0" y="10.0" transform="matrix(6.123233995736766E-17,-1.0,1.0,6.123233995736766E-17,0.0,20.0)" style="font-size:1.0000000000000013px;">China</text>
  <rect x="14.0" y="-49.0" width="4.3478260869565215" height="59.0" style="fill:cyan;opacity:0.3;"/>
  <text x="14.0" y="10.0" transform="matrix(6.123233995736766E-17,-1.0,1.0,6.123233995736766E-17,4.0,24.0)" style="font-size:1.0000000000000013px;">United States</text>
  <rect x="18.0" y="-33.0" width="4.3478260869565215" height="43.0" style="fill:cyan;opacity:0.3;"/>
  <text x="18.0" y="10.0" transform="matrix(6.123233995736766E-17,-1.0,1.0,6.123233995736766E-17,7.999999999999998,28.0)" style="font-size:1.0000000000000013px;">Canada</text>
  <rect x="23.0" y="-18.0" width="4.3478260869565215" height="28.0" style="fill:cyan;opacity:0.3;"/>
  <text x="23.0" y="10.0" transform="matrix(6.123233995736766E-17,-1.0,1.0,6.123233995736766E-17,12.999999999999998,33.0)" style="font-size:1.0000000000000013px;">Germany</text>
  <rect x="27.0" y="-9.0" width="4.3478260869565215" height="19.0" style="fill:cyan;opacity:0.3;"/>
  <text x="27.0" y="10.0" transform="matrix(6.123233995736766E-17,-1.0,1.0,6.123233995736766E-17,17.0,37.0)" style="font-size:1.0000000000000013px;">Netherlands</text>
  <rect x="31.0" y="-6.0" width="4.3478260869565215" height="16.0" style="fill:cyan;opacity:0.3;"/>
  <text x="31.0" y="10.0" transform="matrix(6.123233995736766E-17,-1.0,1.0,6.123233995736766E-17,21.0,41.0)" style="font-size:1.0000000000000013px;">United States.</text>
  <rect x="36.0" y="-6.0" width="4.3478260869565215" height="16.0" style="fill:cyan;opacity:0.3;"/>
  <text x="36.0" y="10.0" transform="matrix(6.123233995736766E-17,-1.0,1.0,6.123233995736766E-17,26.0,46.0)" style="font-size:1.0000000000000013px;">Spain</text>
  <rect x="40.0" y="-6.0" width="4.3478260869565215" height="16.0" style="fill:cyan;opacity:0.3;"/>
  <text x="40.0" y="10.0" transform="matrix(6.123233995736766E-17,-1.0,1.0,6.123233995736766E-17,30.0,50.0)" style="font-size:1.0000000000000013px;">Norway</text>
  <rect x="44.0" y="-4.0" width="4.3478260869565215" height="14.0" style="fill:cyan;opacity:0.3;"/>
  <text x="44.0" y="10.0" transform="matrix(6.123233995736766E-17,-1.0,1.0,6.123233995736766E-17,34.0,54.0)" style="font-size:1.0000000000000013px;">United States,</text>
  <rect x="49.0" y="-4.0" width="4.3478260869565215" height="14.0" style="fill:cyan;opacity:0.3;"/>
  <text x="49.0" y="10.0" transform="matrix(6.123233995736766E-17,-1.0,1.0,6.123233995736766E-17,39.0,59.0)" style="font-size:1.0000000000000013px;">South Africa.</text>
  <rect x="53.0" y="-2.0" width="4.3478260869565215" height="12.0" style="fill:cyan;opacity:0.3;"/>
  <text x="53.0" y="10.0" transform="matrix(6.123233995736766E-17,-1.0,1.0,6.123233995736766E-17,43.0,63.0)" style="font-size:1.0000000000000013px;">Peru</text>
  <rect x="57.0" y="-2.0" width="4.3478260869565215" height="12.0" style="fill:cyan;opacity:0.3;"/>
  <text x="57.0" y="10.0" transform="matrix(6.123233995736766E-17,-1.0,1.0,6.123233995736766E-17,47.0,67.0)" style="font-size:1.0000000000000013px;">Poland</text>
  <rect x="62.0" y="0.0" width="4.3478260869565215" height="10.0" style="fill:cyan;opacity:0.3;"/>
  <text x="62.0" y="10.0" transform="matrix(6.123233995736766E-17,-1.0,1.0,6.123233995736766E-17,52.0,72.0)" style="font-size:1.0000000000000013px;">Cambodia</text>
  <rect x="66.0" y="0.0" width="4.3478260869565215" height="10.0" style="fill:cyan;opacity:0.3;"/>
  <text x="66.0" y="10.0" transform="matrix(6.123233995736766E-17,-1.0,1.0,6.123233995736766E-17,56.0,76.0)" style="font-size:1.0000000000000013px;">United States;</text>
  <rect x="70.0" y="0.0" width="4.3478260869565215" height="10.0" style="fill:cyan;opacity:0.3;"/>
  <text x="70.0" y="10.0" transform="matrix(6.123233995736766E-17,-1.0,1.0,6.123233995736766E-17,60.0,80.0)" style="font-size:1.0000000000000013px;">United Kingdom</text>
  <rect x="75.0" y="0.0" width="4.3478260869565215" height="10.0" style="fill:cyan;opacity:0.3;"/>
  <text x="75.0" y="10.0" transform="matrix(6.123233995736766E-17,-1.0,1.0,6.123233995736766E-17,65.0,85.0)" style="font-size:1.0000000000000013px;">Switzerland</text>
  <rect x="79.0" y="0.0" width="4.3478260869565215" height="10.0" style="fill:cyan;opacity:0.3;"/>
  <text x="79.0" y="10.0" transform="matrix(6.123233995736766E-17,-1.0,1.0,6.123233995736766E-17,69.0,89.0)" style="font-size:1.0000000000000013px;">Australia</text>
  <rect x="83.0" y="0.0" width="4.3478260869565215" height="10.0" style="fill:cyan;opacity:0.3;"/>
  <text x="83.0" y="10.0" transform="matrix(6.123233995736766E-17,-1.0,1.0,6.123233995736766E-17,73.0,93.0)" style="font-size:1.0000000000000013px;">Japan</text>
  <rect x="88.0" y="0.0" width="4.3478260869565215" height="10.0" style="fill:cyan;opacity:0.3;"/>
  <text x="88.0" y="10.0" transform="matrix(6.123233995736766E-17,-1.0,1.0,6.123233995736766E-17,78.0,98.0)" style="font-size:1.0000000000000013px;">Italy</text>
  <rect x="92.0" y="0.0" width="4.3478260869565215" height="10.0" style="fill:cyan;opacity:0.3;"/>
  <text x="92.0" y="10.0" transform="matrix(6.123233995736766E-17,-1.0,1.0,6.123233995736766E-17,82.0,102.0)" style="font-size:1.0000000000000013px;">Bangladesh</text>
  <rect x="96.0" y="1.0" width="4.3478260869565215" height="9.0" style="fill:cyan;opacity:0.3;"/>
  <text x="96.0" y="10.0" transform="matrix(6.123233995736766E-17,-1.0,1.0,6.123233995736766E-17,86.0,106.0)" style="font-size:1.0000000000000013px;">Mongolia</text>
  <rect x="101.0" y="1.0" width="4.3478260869565215" height="9.0" style="fill:cyan;opacity:0.3;"/>
  <text x="101.0" y="10.0" transform="matrix(6.123233995736766E-17,-1.0,1.0,6.123233995736766E-17,91.0,111.0)" style="font-size:1.0000000000000013px;">Mali</text>
  <rect x="105.0" y="1.0" width="4.3478260869565215" height="9.0" style="fill:cyan;opacity:0.3;"/>
  <text x="105.0" y="10.0" transform="matrix(6.123233995736766E-17,-1.0,1.0,6.123233995736766E-17,95.0,115.0)" style="font-size:1.0000000000000013px;">Colombia</text>
  <rect x="110.0" y="1.0" width="4.3478260869565215" height="9.0" style="fill:cyan;opacity:0.3;"/>
  <text x="110.0" y="10.0" transform="matrix(6.123233995736766E-17,-1.0,1.0,6.123233995736766E-17,100.0,120.0)" style="font-size:1.0000000000000013px;">Saudi Arabia,</text>
  <rect x="114.0" y="1.0" width="4.3478260869565215" height="9.0" style="fill:cyan;opacity:0.3;"/>
  <text x="114.0" y="10.0" transform="matrix(6.123233995736766E-17,-1.0,1.0,6.123233995736766E-17,104.0,124.0)" style="font-size:1.0000000000000013px;">Saudi Arabia</text>
  <rect x="118.0" y="1.0" width="4.3478260869565215" height="9.0" style="fill:cyan;opacity:0.3;"/>
  <text x="118.0" y="10.0" transform="matrix(6.123233995736766E-17,-1.0,1.0,6.123233995736766E-17,108.0,128.0)" style="font-size:1.0000000000000013px;">Ireland</text>
  <rect x="123.0" y="1.0" width="4.3478260869565215" height="9.0" style="fill:cyan;opacity:0.3;"/>
  <text x="123.0" y="10.0" transform="matrix(6.123233995736766E-17,-1.0,1.0,6.123233995736766E-17,113.0,133.0)" style="font-size:1.0000000000000013px;">France</text>
  <rect x="127.0" y="3.0" width="4.3478260869565215" height="7.0" style="fill:cyan;opacity:0.3;"/>
  <text x="127.0" y="10.0" transform="matrix(6.123233995736766E-17,-1.0,1.0,6.123233995736766E-17,117.0,137.0)" style="font-size:1.0000000000000013px;">South Africa</text>
  <rect x="131.0" y="3.0" width="4.3478260869565215" height="7.0" style="fill:cyan;opacity:0.3;"/>
  <text x="131.0" y="10.0" transform="matrix(6.123233995736766E-17,-1.0,1.0,6.123233995736766E-17,120.99999999999999,141.0)" style="font-size:1.0000000000000013px;">Thailand</text>
  <rect x="136.0" y="3.0" width="4.3478260869565215" height="7.0" style="fill:cyan;opacity:0.3;"/>
  <text x="136.0" y="10.0" transform="matrix(6.123233995736766E-17,-1.0,1.0,6.123233995736766E-17,125.99999999999999,146.0)" style="font-size:1.0000000000000013px;">Cyprus</text>
  <rect x="140.0" y="3.0" width="4.3478260869565215" height="7.0" style="fill:cyan;opacity:0.3;"/>
  <text x="140.0" y="10.0" transform="matrix(6.123233995736766E-17,-1.0,1.0,6.123233995736766E-17,130.0,150.0)" style="font-size:1.0000000000000013px;">Austria</text>
  <rect x="144.0" y="3.0" width="4.3478260869565215" height="7.0" style="fill:cyan;opacity:0.3;"/>
  <text x="144.0" y="10.0" transform="matrix(6.123233995736766E-17,-1.0,1.0,6.123233995736766E-17,134.0,154.0)" style="font-size:1.0000000000000013px;">Qatar</text>
  <rect x="149.0" y="3.0" width="4.3478260869565215" height="7.0" style="fill:cyan;opacity:0.3;"/>
  <text x="149.0" y="10.0" transform="matrix(6.123233995736766E-17,-1.0,1.0,6.123233995736766E-17,139.0,159.0)" style="font-size:1.0000000000000013px;">Mexico</text>
  <rect x="153.0" y="5.0" width="4.3478260869565215" height="5.0" style="fill:cyan;opacity:0.3;"/>
  <text x="153.0" y="10.0" transform="matrix(6.123233995736766E-17,-1.0,1.0,6.123233995736766E-17,143.0,163.0)" style="font-size:1.0000000000000013px;">Kazakhstan</text>
  <rect x="157.0" y="5.0" width="4.3478260869565215" height="5.0" style="fill:cyan;opacity:0.3;"/>
  <text x="157.0" y="10.0" transform="matrix(6.123233995736766E-17,-1.0,1.0,6.123233995736766E-17,147.0,167.0)" style="font-size:1.0000000000000013px;">Bahamas</text>
  <rect x="162.0" y="5.0" width="4.3478260869565215" height="5.0" style="fill:cyan;opacity:0.3;"/>
  <text x="162.0" y="10.0" transform="matrix(6.123233995736766E-17,-1.0,1.0,6.123233995736766E-17,152.0,172.0)" style="font-size:1.0000000000000013px;">Greece</text>
  <rect x="166.0" y="5.0" width="4.3478260869565215" height="5.0" style="fill:cyan;opacity:0.3;"/>
  <text x="166.0" y="10.0" transform="matrix(6.123233995736766E-17,-1.0,1.0,6.123233995736766E-17,156.0,176.0)" style="font-size:1.0000000000000013px;">Hong Kong,</text>
  <rect x="170.0" y="5.0" width="4.3478260869565215" height="5.0" style="fill:cyan;opacity:0.3;"/>
  <text x="170.0" y="10.0" transform="matrix(6.123233995736766E-17,-1.0,1.0,6.123233995736766E-17,160.0,180.0)" style="font-size:1.0000000000000013px;">India</text>
  <rect x="175.0" y="5.0" width="4.3478260869565215" height="5.0" style="fill:cyan;opacity:0.3;"/>
  <text x="175.0" y="10.0" transform="matrix(6.123233995736766E-17,-1.0,1.0,6.123233995736766E-17,165.0,185.0)" style="font-size:1.0000000000000013px;">Belgium</text>
  <rect x="179.0" y="5.0" width="4.3478260869565215" height="5.0" style="fill:cyan;opacity:0.3;"/>
  <text x="179.0" y="10.0" transform="matrix(6.123233995736766E-17,-1.0,1.0,6.123233995736766E-17,169.0,189.0)" style="font-size:1.0000000000000013px;">Finland</text>
  <rect x="183.0" y="5.0" width="4.3478260869565215" height="5.0" style="fill:cyan;opacity:0.3;"/>
  <text x="183.0" y="10.0" transform="matrix(6.123233995736766E-17,-1.0,1.0,6.123233995736766E-17,173.0,193.0)" style="font-size:1.0000000000000013px;">Jamaica</text>
  <rect x="188.0" y="5.0" width="4.3478260869565215" height="5.0" style="fill:cyan;opacity:0.3;"/>
  <text x="188.0" y="10.0" transform="matrix(6.123233995736766E-17,-1.0,1.0,6.123233995736766E-17,178.0,198.0)" style="font-size:1.0000000000000013px;">Nigeria</text>
  <rect x="192.0" y="5.0" width="4.3478260869565215" height="5.0" style="fill:cyan;opacity:0.3;"/>
  <text x="192.0" y="10.0" transform="matrix(6.123233995736766E-17,-1.0,1.0,6.123233995736766E-17,182.0,202.0)" style="font-size:1.0000000000000013px;">Dominican Repub</text>
  <rect x="196.0" y="5.0" width="4.3478260869565215" height="5.0" style="fill:cyan;opacity:0.3;"/>
  <text x="196.0" y="10.0" transform="matrix(6.123233995736766E-17,-1.0,1.0,6.123233995736766E-17,186.0,206.0)" style="font-size:1.0000000000000013px;">Saudi Arabia.</text>
  <rect x="201.0" y="5.0" width="4.3478260869565215" height="5.0" style="fill:cyan;opacity:0.3;"/>
  <text x="201.0" y="10.0" transform="matrix(6.123233995736766E-17,-1.0,1.0,6.123233995736766E-17,191.0,211.0)" style="font-size:1.0000000000000013px;">New Zealand</text>
  <rect x="205.0" y="5.0" width="4.3478260869565215" height="5.0" style="fill:cyan;opacity:0.3;"/>
  <text x="205.0" y="10.0" transform="matrix(6.123233995736766E-17,-1.0,1.0,6.123233995736766E-17,195.0,215.0)" style="font-size:1.0000000000000013px;">Pakistan</text>
  <rect x="210.0" y="5.0" width="4.3478260869565215" height="5.0" style="fill:cyan;opacity:0.3;"/>
  <text x="210.0" y="10.0" transform="matrix(6.123233995736766E-17,-1.0,1.0,6.123233995736766E-17,200.0,220.0)" style="font-size:1.0000000000000013px;">Uzbekistan</text>
  <rect x="214.0" y="5.0" width="4.3478260869565215" height="5.0" style="fill:cyan;opacity:0.3;"/>
  <text x="214.0" y="10.0" transform="matrix(6.123233995736766E-17,-1.0,1.0,6.123233995736766E-17,204.0,224.0)" style="font-size:1.0000000000000013px;">Denmark</text>
  <rect x="218.0" y="5.0" width="4.3478260869565215" height="5.0" style="fill:cyan;opacity:0.3;"/>
  <text x="218.0" y="10.0" transform="matrix(6.123233995736766E-17,-1.0,1.0,6.123233995736766E-17,208.0,228.0)" style="font-size:1.0000000000000013px;">Dominican Repub</text>
  <rect x="223.0" y="7.0" width="4.3478260869565215" height="3.0" style="fill:cyan;opacity:0.3;"/>
  <text x="223.0" y="10.0" transform="matrix(6.123233995736766E-17,-1.0,1.0,6.123233995736766E-17,213.0,233.0)" style="font-size:1.0000000000000013px;">Sudan</text>
  <rect x="227.0" y="7.0" width="4.3478260869565215" height="3.0" style="fill:cyan;opacity:0.3;"/>
  <text x="227.0" y="10.0" transform="matrix(6.123233995736766E-17,-1.0,1.0,6.123233995736766E-17,217.0,237.0)" style="font-size:1.0000000000000013px;">Portugal</text>
  <rect x="231.0" y="7.0" width="4.3478260869565215" height="3.0" style="fill:cyan;opacity:0.3;"/>
  <text x="231.0" y="10.0" transform="matrix(6.123233995736766E-17,-1.0,1.0,6.123233995736766E-17,221.0,241.0)" style="font-size:1.0000000000000013px;">Cayman Islands</text>
  <rect x="236.0" y="7.0" width="4.3478260869565215" height="3.0" style="fill:cyan;opacity:0.3;"/>
  <text x="236.0" y="10.0" transform="matrix(6.123233995736766E-17,-1.0,1.0,6.123233995736766E-17,226.0,246.0)" style="font-size:1.0000000000000013px;">Latvia</text>
  <rect x="240.0" y="7.0" width="4.3478260869565215" height="3.0" style="fill:cyan;opacity:0.3;"/>
  <text x="240.0" y="10.0" transform="matrix(6.123233995736766E-17,-1.0,1.0,6.123233995736766E-17,230.0,250.0)" style="font-size:1.0000000000000013px;">Guyana</text>
  <rect x="244.0" y="7.0" width="4.3478260869565215" height="3.0" style="fill:cyan;opacity:0.3;"/>
  <text x="244.0" y="10.0" transform="matrix(6.123233995736766E-17,-1.0,1.0,6.123233995736766E-17,234.0,254.0)" style="font-size:1.0000000000000013px;">Iraq</text>
  <rect x="249.0" y="7.0" width="4.3478260869565215" height="3.0" style="fill:cyan;opacity:0.3;"/>
  <text x="249.0" y="10.0" transform="matrix(6.123233995736766E-17,-1.0,1.0,6.123233995736766E-17,238.99999999999997,259.0)" style="font-size:1.0000000000000013px;">Trinidad and To</text>
  <rect x="253.0" y="7.0" width="4.3478260869565215" height="3.0" style="fill:cyan;opacity:0.3;"/>
  <text x="253.0" y="10.0" transform="matrix(6.123233995736766E-17,-1.0,1.0,6.123233995736766E-17,242.99999999999997,263.0)" style="font-size:1.0000000000000013px;">Turkey</text>
  <rect x="257.0" y="7.0" width="4.3478260869565215" height="3.0" style="fill:cyan;opacity:0.3;"/>
  <text x="257.0" y="10.0" transform="matrix(6.123233995736766E-17,-1.0,1.0,6.123233995736766E-17,246.99999999999997,267.0)" style="font-size:1.0000000000000013px;">Turkmenistan</text>
  <rect x="262.0" y="7.0" width="4.3478260869565215" height="3.0" style="fill:cyan;opacity:0.3;"/>
  <text x="262.0" y="10.0" transform="matrix(6.123233995736766E-17,-1.0,1.0,6.123233995736766E-17,251.99999999999997,272.0)" style="font-size:1.0000000000000013px;">Fiji</text>
  <rect x="266.0" y="7.0" width="4.3478260869565215" height="3.0" style="fill:cyan;opacity:0.3;"/>
  <text x="266.0" y="10.0" transform="matrix(6.123233995736766E-17,-1.0,1.0,6.123233995736766E-17,255.99999999999997,276.0)" style="font-size:1.0000000000000013px;">United Kingdom,</text>
  <rect x="270.0" y="7.0" width="4.3478260869565215" height="3.0" style="fill:cyan;opacity:0.3;"/>
  <text x="270.0" y="10.0" transform="matrix(6.123233995736766E-17,-1.0,1.0,6.123233995736766E-17,260.0,280.0)" style="font-size:1.0000000000000013px;">Bulgaria</text>
  <rect x="275.0" y="7.0" width="4.3478260869565215" height="3.0" style="fill:cyan;opacity:0.3;"/>
  <text x="275.0" y="10.0" transform="matrix(6.123233995736766E-17,-1.0,1.0,6.123233995736766E-17,265.0,285.0)" style="font-size:1.0000000000000013px;">South Africa,</text>
  <rect x="279.0" y="7.0" width="4.3478260869565215" height="3.0" style="fill:cyan;opacity:0.3;"/>
  <text x="279.0" y="10.0" transform="matrix(6.123233995736766E-17,-1.0,1.0,6.123233995736766E-17,269.0,289.0)" style="font-size:1.0000000000000013px;">Czech Republic</text>
  <rect x="283.0" y="7.0" width="4.3478260869565215" height="3.0" style="fill:cyan;opacity:0.3;"/>
  <text x="283.0" y="10.0" transform="matrix(6.123233995736766E-17,-1.0,1.0,6.123233995736766E-17,273.0,293.0)" style="font-size:1.0000000000000013px;">Malaysia</text>
  <rect x="288.0" y="7.0" width="4.3478260869565215" height="3.0" style="fill:cyan;opacity:0.3;"/>
  <text x="288.0" y="10.0" transform="matrix(6.123233995736766E-17,-1.0,1.0,6.123233995736766E-17,278.0,298.0)" style="font-size:1.0000000000000013px;">Oman</text>
  <rect x="292.0" y="7.0" width="4.3478260869565215" height="3.0" style="fill:cyan;opacity:0.3;"/>
  <text x="292.0" y="10.0" transform="matrix(6.123233995736766E-17,-1.0,1.0,6.123233995736766E-17,282.0,302.0)" style="font-size:1.0000000000000013px;">Brazil</text>
  <rect x="296.0" y="7.0" width="4.3478260869565215" height="3.0" style="fill:cyan;opacity:0.3;"/>
  <text x="296.0" y="10.0" transform="matrix(6.123233995736766E-17,-1.0,1.0,6.123233995736766E-17,286.0,306.0)" style="font-size:1.0000000000000013px;">Slovenia</text>
  <rect x="301.0" y="7.0" width="4.3478260869565215" height="3.0" style="fill:cyan;opacity:0.3;"/>
  <text x="301.0" y="10.0" transform="matrix(6.123233995736766E-17,-1.0,1.0,6.123233995736766E-17,291.0,311.0)" style="font-size:1.0000000000000013px;">Puerto Rico,</text>
  <rect x="305.0" y="7.0" width="4.3478260869565215" height="3.0" style="fill:cyan;opacity:0.3;"/>
  <text x="305.0" y="10.0" transform="matrix(6.123233995736766E-17,-1.0,1.0,6.123233995736766E-17,295.0,315.0)" style="font-size:1.0000000000000013px;">Czech Republic,</text>
  <rect x="310.0" y="7.0" width="4.3478260869565215" height="3.0" style="fill:cyan;opacity:0.3;"/>
  <text x="310.0" y="10.0" transform="matrix(6.123233995736766E-17,-1.0,1.0,6.123233995736766E-17,300.0,320.0)" style="font-size:1.0000000000000013px;">Singapore</text>
  <rect x="314.0" y="7.0" width="4.3478260869565215" height="3.0" style="fill:cyan;opacity:0.3;"/>
  <text x="314.0" y="10.0" transform="matrix(6.123233995736766E-17,-1.0,1.0,6.123233995736766E-17,304.0,324.0)" style="font-size:1.0000000000000013px;">Egypt</text>
  <rect x="318.0" y="7.0" width="4.3478260869565215" height="3.0" style="fill:cyan;opacity:0.3;"/>
  <text x="318.0" y="10.0" transform="matrix(6.123233995736766E-17,-1.0,1.0,6.123233995736766E-17,308.0,328.0)" style="font-size:1.0000000000000013px;">Romania</text>
  <rect x="323.0" y="7.0" width="4.3478260869565215" height="3.0" style="fill:cyan;opacity:0.3;"/>
  <text x="323.0" y="10.0" transform="matrix(6.123233995736766E-17,-1.0,1.0,6.123233995736766E-17,313.0,333.0)" style="font-size:1.0000000000000013px;">Greenland</text>
  <rect x="327.0" y="9.0" width="4.3478260869565215" height="1.0" style="fill:cyan;opacity:0.3;"/>
  <text x="327.0" y="10.0" transform="matrix(6.123233995736766E-17,-1.0,1.0,6.123233995736766E-17,317.0,337.0)" style="font-size:1.0000000000000013px;">Ukraine</text>
  <rect x="331.0" y="9.0" width="4.3478260869565215" height="1.0" style="fill:cyan;opacity:0.3;"/>
  <text x="331.0" y="10.0" transform="matrix(6.123233995736766E-17,-1.0,1.0,6.123233995736766E-17,321.0,341.0)" style="font-size:1.0000000000000013px;">Ghana</text>
  <rect x="336.0" y="9.0" width="4.3478260869565215" height="1.0" style="fill:cyan;opacity:0.3;"/>
  <text x="336.0" y="10.0" transform="matrix(6.123233995736766E-17,-1.0,1.0,6.123233995736766E-17,326.0,346.0)" style="font-size:1.0000000000000013px;">Bahrain</text>
  <rect x="340.0" y="9.0" width="4.3478260869565215" height="1.0" style="fill:cyan;opacity:0.3;"/>
  <text x="340.0" y="10.0" transform="matrix(6.123233995736766E-17,-1.0,1.0,6.123233995736766E-17,330.0,350.0)" style="font-size:1.0000000000000013px;">Congo</text>
  <rect x="344.0" y="9.0" width="4.3478260869565215" height="1.0" style="fill:cyan;opacity:0.3;"/>
  <text x="344.0" y="10.0" transform="matrix(6.123233995736766E-17,-1.0,1.0,6.123233995736766E-17,334.0,354.0)" style="font-size:1.0000000000000013px;">Faroe Islands</text>
  <rect x="349.0" y="9.0" width="4.3478260869565215" height="1.0" style="fill:cyan;opacity:0.3;"/>
  <text x="349.0" y="10.0" transform="matrix(6.123233995736766E-17,-1.0,1.0,6.123233995736766E-17,339.0,359.0)" style="font-size:1.0000000000000013px;">Antigua and Bar</text>
  <rect x="353.0" y="9.0" width="4.3478260869565215" height="1.0" style="fill:cyan;opacity:0.3;"/>
  <text x="353.0" y="10.0" transform="matrix(6.123233995736766E-17,-1.0,1.0,6.123233995736766E-17,343.0,363.0)" style="font-size:1.0000000000000013px;">Comoros</text>
  <rect x="357.0" y="9.0" width="4.3478260869565215" height="1.0" style="fill:cyan;opacity:0.3;"/>
  <text x="357.0" y="10.0" transform="matrix(6.123233995736766E-17,-1.0,1.0,6.123233995736766E-17,347.0,367.0)" style="font-size:1.0000000000000013px;">New Zealand,</text>
  <rect x="362.0" y="9.0" width="4.3478260869565215" height="1.0" style="fill:cyan;opacity:0.3;"/>
  <text x="362.0" y="10.0" transform="matrix(6.123233995736766E-17,-1.0,1.0,6.123233995736766E-17,352.0,372.0)" style="font-size:1.0000000000000013px;">Democratic Repu</text>
  <rect x="366.0" y="9.0" width="4.3478260869565215" height="1.0" style="fill:cyan;opacity:0.3;"/>
  <text x="366.0" y="10.0" transform="matrix(6.123233995736766E-17,-1.0,1.0,6.123233995736766E-17,356.0,376.0)" style="font-size:1.0000000000000013px;">New Zealand.</text>
  <rect x="370.0" y="9.0" width="4.3478260869565215" height="1.0" style="fill:cyan;opacity:0.3;"/>
  <text x="370.0" y="10.0" transform="matrix(6.123233995736766E-17,-1.0,1.0,6.123233995736766E-17,360.0,380.0)" style="font-size:1.0000000000000013px;">Yemen</text>
  <rect x="375.0" y="9.0" width="4.3478260869565215" height="1.0" style="fill:cyan;opacity:0.3;"/>
  <text x="375.0" y="10.0" transform="matrix(6.123233995736766E-17,-1.0,1.0,6.123233995736766E-17,365.0,385.0)" style="font-size:1.0000000000000013px;">Puerto Rico</text>
  <rect x="379.0" y="9.0" width="4.3478260869565215" height="1.0" style="fill:cyan;opacity:0.3;"/>
  <text x="379.0" y="10.0" transform="matrix(6.123233995736766E-17,-1.0,1.0,6.123233995736766E-17,369.0,389.0)" style="font-size:1.0000000000000013px;">Costa Rica</text>
  <rect x="383.0" y="9.0" width="4.3478260869565215" height="1.0" style="fill:cyan;opacity:0.3;"/>
  <text x="383.0" y="10.0" transform="matrix(6.123233995736766E-17,-1.0,1.0,6.123233995736766E-17,373.0,393.0)" style="font-size:1.0000000000000013px;">Sweden</text>
  <rect x="388.0" y="9.0" width="4.3478260869565215" height="1.0" style="fill:cyan;opacity:0.3;"/>
  <text x="388.0" y="10.0" transform="matrix(6.123233995736766E-17,-1.0,1.0,6.123233995736766E-17,378.0,398.0)" style="font-size:1.0000000000000013px;">Liechtenstein</text>
  <rect x="392.0" y="9.0" width="4.3478260869565215" height="1.0" style="fill:cyan;opacity:0.3;"/>
  <text x="392.0" y="10.0" transform="matrix(6.123233995736766E-17,-1.0,1.0,6.123233995736766E-17,382.0,402.0)" style="font-size:1.0000000000000013px;">Croatia</text>
  <rect x="396.0" y="9.0" width="4.3478260869565215" height="1.0" style="fill:cyan;opacity:0.3;"/>
  <text x="396.0" y="10.0" transform="matrix(6.123233995736766E-17,-1.0,1.0,6.123233995736766E-17,386.0,406.0)" style="font-size:1.0000000000000013px;">United Arab Emi</text>
  <rect x="401.0" y="9.0" width="4.3478260869565215" height="1.0" style="fill:cyan;opacity:0.3;"/>
  <text x="401.0" y="10.0" transform="matrix(6.123233995736766E-17,-1.0,1.0,6.123233995736766E-17,391.0,411.0)" style="font-size:1.0000000000000013px;">Kenya</text>
  <rect x="405.0" y="9.0" width="4.3478260869565215" height="1.0" style="fill:cyan;opacity:0.3;"/>
  <text x="405.0" y="10.0" transform="matrix(6.123233995736766E-17,-1.0,1.0,6.123233995736766E-17,395.0,415.0)" style="font-size:1.0000000000000013px;">Cuba</text>
  <rect x="410.0" y="9.0" width="4.3478260869565215" height="1.0" style="fill:cyan;opacity:0.3;"/>
  <text x="410.0" y="10.0" transform="matrix(6.123233995736766E-17,-1.0,1.0,6.123233995736766E-17,400.0,420.0)" style="font-size:1.0000000000000013px;">Azerbaijan</text>
  <rect x="414.0" y="9.0" width="4.3478260869565215" height="1.0" style="fill:cyan;opacity:0.3;"/>
  <text x="414.0" y="10.0" transform="matrix(6.123233995736766E-17,-1.0,1.0,6.123233995736766E-17,404.0,424.0)" style="font-size:1.0000000000000013px;">United Kingdom.</text>
  <rect x="418.0" y="9.0" width="4.3478260869565215" height="1.0" style="fill:cyan;opacity:0.3;"/>
  <text x="418.0" y="10.0" transform="matrix(6.123233995736766E-17,-1.0,1.0,6.123233995736766E-17,408.0,428.0)" style="font-size:1.0000000000000013px;">Estonia</text>
  <rect x="423.0" y="9.0" width="4.3478260869565215" height="1.0" style="fill:cyan;opacity:0.3;"/>
  <text x="423.0" y="10.0" transform="matrix(6.123233995736766E-17,-1.0,1.0,6.123233995736766E-17,413.0,433.0)" style="font-size:1.0000000000000013px;">Iceland</text>
  <rect x="427.0" y="9.0" width="4.3478260869565215" height="1.0" style="fill:cyan;opacity:0.3;"/>
  <text x="427.0" y="10.0" transform="matrix(6.123233995736766E-17,-1.0,1.0,6.123233995736766E-17,417.0,437.0)" style="font-size:1.0000000000000013px;">French Polynesi</text>
  <rect x="431.0" y="9.0" width="4.3478260869565215" height="1.0" style="fill:cyan;opacity:0.3;"/>
  <text x="431.0" y="10.0" transform="matrix(6.123233995736766E-17,-1.0,1.0,6.123233995736766E-17,421.0,441.0)" style="font-size:1.0000000000000013px;">Luxembourg</text>
  <rect x="436.0" y="9.0" width="4.3478260869565215" height="1.0" style="fill:cyan;opacity:0.3;"/>
  <text x="436.0" y="10.0" transform="matrix(6.123233995736766E-17,-1.0,1.0,6.123233995736766E-17,426.0,446.0)" style="font-size:1.0000000000000013px;">New Caledonia,</text>
  <rect x="440.0" y="9.0" width="4.3478260869565215" height="1.0" style="fill:cyan;opacity:0.3;"/>
  <text x="440.0" y="10.0" transform="matrix(6.123233995736766E-17,-1.0,1.0,6.123233995736766E-17,430.0,450.0)" style="font-size:1.0000000000000013px;">Jersey</text>
  <rect x="444.0" y="9.0" width="4.3478260869565215" height="1.0" style="fill:cyan;opacity:0.3;"/>
  <text x="444.0" y="10.0" transform="matrix(6.123233995736766E-17,-1.0,1.0,6.123233995736766E-17,434.0,454.0)" style="font-size:1.0000000000000013px;">Ecuador</text>
  <rect x="449.0" y="9.0" width="4.3478260869565215" height="1.0" style="fill:cyan;opacity:0.3;"/>
  <text x="449.0" y="10.0" transform="matrix(6.123233995736766E-17,-1.0,1.0,6.123233995736766E-17,439.0,459.0)" style="font-size:1.0000000000000013px;">Hungary</text>
  <rect x="453.0" y="9.0" width="4.3478260869565215" height="1.0" style="fill:cyan;opacity:0.3;"/>
  <text x="453.0" y="10.0" transform="matrix(6.123233995736766E-17,-1.0,1.0,6.123233995736766E-17,443.0,463.0)" style="font-size:1.0000000000000013px;">Saudi Arabia;</text>
  <rect x="457.0" y="9.0" width="4.3478260869565215" height="1.0" style="fill:cyan;opacity:0.3;"/>
  <text x="457.0" y="10.0" transform="matrix(6.123233995736766E-17,-1.0,1.0,6.123233995736766E-17,447.0,467.0)" style="font-size:1.0000000000000013px;">Czech Republic;</text>
  <rect x="462.0" y="9.0" width="4.3478260869565215" height="1.0" style="fill:cyan;opacity:0.3;"/>
  <text x="462.0" y="10.0" transform="matrix(6.123233995736766E-17,-1.0,1.0,6.123233995736766E-17,452.0,472.0)" style="font-size:1.0000000000000013px;">Dominican Repub</text>
  <rect x="466.0" y="9.0" width="4.3478260869565215" height="1.0" style="fill:cyan;opacity:0.3;"/>
  <text x="466.0" y="10.0" transform="matrix(6.123233995736766E-17,-1.0,1.0,6.123233995736766E-17,456.0,476.0)" style="font-size:1.0000000000000013px;">Ethiopia</text>
  <rect x="470.0" y="9.0" width="4.3478260869565215" height="1.0" style="fill:cyan;opacity:0.3;"/>
  <text x="470.0" y="10.0" transform="matrix(6.123233995736766E-17,-1.0,1.0,6.123233995736766E-17,460.0,480.0)" style="font-size:1.0000000000000013px;">Afghanistan</text>
  <rect x="475.0" y="9.0" width="4.3478260869565215" height="1.0" style="fill:cyan;opacity:0.3;"/>
  <text x="475.0" y="10.0" transform="matrix(6.123233995736766E-17,-1.0,1.0,6.123233995736766E-17,465.0,485.0)" style="font-size:1.0000000000000013px;">Malta</text>
  <rect x="479.0" y="9.0" width="4.3478260869565215" height="1.0" style="fill:cyan;opacity:0.3;"/>
  <text x="479.0" y="10.0" transform="matrix(6.123233995736766E-17,-1.0,1.0,6.123233995736766E-17,468.99999999999994,489.0)" style="font-size:1.0000000000000013px;">Burkina Faso,</text>
  <rect x="483.0" y="9.0" width="4.3478260869565215" height="1.0" style="fill:cyan;opacity:0.3;"/>
  <text x="483.0" y="10.0" transform="matrix(6.123233995736766E-17,-1.0,1.0,6.123233995736766E-17,472.99999999999994,493.0)" style="font-size:1.0000000000000013px;">Burkina Faso.</text>
  <rect x="488.0" y="9.0" width="4.3478260869565215" height="1.0" style="fill:cyan;opacity:0.3;"/>
  <text x="488.0" y="10.0" transform="matrix(6.123233995736766E-17,-1.0,1.0,6.123233995736766E-17,477.99999999999994,498.0)" style="font-size:1.0000000000000013px;">Slovakia</text>
  <rect x="492.0" y="9.0" width="4.3478260869565215" height="1.0" style="fill:cyan;opacity:0.3;"/>
  <text x="492.0" y="10.0" transform="matrix(6.123233995736766E-17,-1.0,1.0,6.123233995736766E-17,481.99999999999994,502.0)" style="font-size:1.0000000000000013px;">Lithuania</text>
  <rect x="496.0" y="9.0" width="4.3478260869565215" height="1.0" style="fill:cyan;opacity:0.3;"/>
  <text x="496.0" y="10.0" transform="matrix(6.123233995736766E-17,-1.0,1.0,6.123233995736766E-17,485.99999999999994,506.0)" style="font-size:1.0000000000000013px;">Niger</text>
  <rect x="501.0" y="9.0" width="4.3478260869565215" height="1.0" style="fill:cyan;opacity:0.3;"/>
  <text x="501.0" y="10.0" transform="matrix(6.123233995736766E-17,-1.0,1.0,6.123233995736766E-17,490.99999999999994,511.0)" style="font-size:1.0000000000000013px;">Philippines</text>
  <rect x="505.0" y="9.0" width="4.3478260869565215" height="1.0" style="fill:cyan;opacity:0.3;"/>
  <text x="505.0" y="10.0" transform="matrix(6.123233995736766E-17,-1.0,1.0,6.123233995736766E-17,494.99999999999994,515.0)" style="font-size:1.0000000000000013px;">Saint Vincent a</text>
 </g>
</svg>
