<?xml version="1.0" encoding="UTF-8"?>
<svg xmlns="http://www.w3.org/2000/svg">
 <g>
  <text x="0.0" y="118.0" style="font-family:Helvetica;font-size:22px;stroke:red;">migration</text>
  <text x="0.0" y="140.0" style="font-family:Helvetica;font-size:22px;stroke:red;">migration</text>
  <text x="10.0" y="162.0" title="migration" style="fill:black;font-family:Helvetica;font-size:13.2px;font-weight:bold;">migration</text>
  <text x="151.0" y="129.0" transform="matrix(6.123233995736766E-17,-1.0,1.0,6.123233995736766E-17,22.0,280.0)" title="migration" style="fill:black;font-family:Helvetica;font-size:13.2px;font-weight:bold;">migration</text>
  <g>
   <rect x="140.0" y="140.0" width="22.0" height="22.0" style="fill:#000;"/>
   <text x="140.0" y="162.0" style="fill:orange;font-family:Helvetica;font-size:13.2px;stroke:orange;stroke-width:0.8;">199</text>
  </g>
  <text x="173.0" y="129.0" transform="matrix(6.123233995736766E-17,-1.0,1.0,6.123233995736766E-17,44.0,302.0)" title="conflict" style="fill:black;font-family:Helvetica;font-size:13.2px;font-weight:bold;">conflict</text>
  <g>
   <rect x="162.0" y="140.0" width="22.0" height="22.0" style="fill:#afafaf;"/>
   <text x="162.0" y="162.0" style="fill:orange;font-family:Helvetica;font-size:13.2px;stroke:orange;stroke-width:0.8;">63</text>
  </g>
  <text x="195.0" y="129.0" transform="matrix(6.123233995736766E-17,-1.0,1.0,6.123233995736766E-17,66.0,324.0)" title="trafficking" style="fill:black;font-family:Helvetica;font-size:13.2px;font-weight:bold;">trafficking</text>
  <g>
   <rect x="184.0" y="140.0" width="22.0" height="22.0" style="fill:#eeeeee;"/>
   <text x="184.0" y="162.0" style="fill:orange;font-family:Helvetica;font-size:13.2px;stroke:orange;stroke-width:0.8;">14</text>
  </g>
  <text x="217.0" y="129.0" transform="matrix(6.123233995736766E-17,-1.0,1.0,6.123233995736766E-17,88.0,346.0)" title="refugee" style="fill:black;font-family:Helvetica;font-size:13.2px;font-weight:bold;">refugee</text>
  <g>
   <rect x="206.0" y="140.0" width="22.0" height="22.0" style="fill:#f9f9f9;"/>
   <text x="206.0" y="162.0" style="fill:orange;font-family:Helvetica;font-size:13.2px;stroke:orange;stroke-width:0.8;">5</text>
  </g>
  <text x="239.0" y="129.0" transform="matrix(6.123233995736766E-17,-1.0,1.0,6.123233995736766E-17,109.99999999999997,368.0)" title="poverty" style="fill:black;font-family:Helvetica;font-size:13.2px;font-weight:bold;">poverty</text>
  <g>
   <rect x="228.0" y="140.0" width="22.0" height="22.0" style="fill:#f8f8f8;"/>
   <text x="228.0" y="162.0" style="fill:orange;font-family:Helvetica;font-size:13.2px;stroke:orange;stroke-width:0.8;">6</text>
  </g>
  <text x="261.0" y="129.0" transform="matrix(6.123233995736766E-17,-1.0,1.0,6.123233995736766E-17,131.99999999999997,390.0)" title="war" style="fill:black;font-family:Helvetica;font-size:13.2px;font-weight:bold;">war</text>
  <g>
   <rect x="250.0" y="140.0" width="22.0" height="22.0" style="fill:#fdfdfd;"/>
   <text x="250.0" y="162.0" style="fill:orange;font-family:Helvetica;font-size:13.2px;stroke:orange;stroke-width:0.8;">2</text>
  </g>
  <text x="283.0" y="129.0" transform="matrix(6.123233995736766E-17,-1.0,1.0,6.123233995736766E-17,153.99999999999997,412.0)" title="Human migration" style="fill:black;font-family:Helvetica;font-size:13.2px;font-weight:bold;">Human migration</text>
  <g>
   <rect x="272.0" y="140.0" width="22.0" height="22.0" style="fill:#fdfdfd;"/>
   <text x="272.0" y="162.0" style="fill:orange;font-family:Helvetica;font-size:13.2px;stroke:orange;stroke-width:0.8;">2</text>
  </g>
  <text x="305.0" y="129.0" transform="matrix(6.123233995736766E-17,-1.0,1.0,6.123233995736766E-17,175.99999999999997,434.0)" title="forced labor," style="fill:black;font-family:Helvetica;font-size:13.2px;font-weight:bold;">forced labor,</text>
  <g>
   <rect x="294.0" y="140.0" width="22.0" height="22.0" style="fill:#fefefe;"/>
   <text x="294.0" y="162.0" style="fill:orange;font-family:Helvetica;font-size:13.2px;stroke:orange;stroke-width:0.8;">1</text>
  </g>
  <text x="327.0" y="129.0" transform="matrix(6.123233995736766E-17,-1.0,1.0,6.123233995736766E-17,197.99999999999997,456.0)" title="Human migration," style="fill:black;font-family:Helvetica;font-size:13.2px;font-weight:bold;">Human migration</text>
  <g>
   <rect x="316.0" y="140.0" width="22.0" height="22.0" style="fill:#fefefe;"/>
   <text x="316.0" y="162.0" style="fill:orange;font-family:Helvetica;font-size:13.2px;stroke:orange;stroke-width:0.8;">1</text>
  </g>
  <text x="10.0" y="184.0" title="conflict" style="fill:black;font-family:Helvetica;font-size:13.2px;font-weight:bold;">conflict</text>
  <g>
   <rect x="140.0" y="162.0" width="22.0" height="22.0" style="fill:#afafaf;"/>
   <text x="140.0" y="184.0" style="fill:orange;font-family:Helvetica;font-size:13.2px;stroke:orange;stroke-width:0.8;">63</text>
  </g>
  <g>
   <rect x="162.0" y="162.0" width="22.0" height="22.0" style="fill:#afafaf;"/>
   <text x="162.0" y="184.0" style="fill:orange;font-family:Helvetica;font-size:13.2px;stroke:orange;stroke-width:0.8;">63</text>
  </g>
  <g>
   <rect x="184.0" y="162.0" width="22.0" height="22.0" style="fill:#f8f8f8;"/>
   <text x="184.0" y="184.0" style="fill:orange;font-family:Helvetica;font-size:13.2px;stroke:orange;stroke-width:0.8;">6</text>
  </g>
  <g>
   <rect x="206.0" y="162.0" width="22.0" height="22.0" style="fill:#fafafa;"/>
   <text x="206.0" y="184.0" style="fill:orange;font-family:Helvetica;font-size:13.2px;stroke:orange;stroke-width:0.8;">4</text>
  </g>
  <g>
   <rect x="228.0" y="162.0" width="22.0" height="22.0" style="fill:#fafafa;"/>
   <text x="228.0" y="184.0" style="fill:orange;font-family:Helvetica;font-size:13.2px;stroke:orange;stroke-width:0.8;">4</text>
  </g>
  <g>
   <rect x="250.0" y="162.0" width="22.0" height="22.0" style="fill:#fefefe;"/>
   <text x="250.0" y="184.0" style="fill:orange;font-family:Helvetica;font-size:13.2px;stroke:orange;stroke-width:0.8;">1</text>
  </g>
  <g>
   <rect x="272.0" y="162.0" width="22.0" height="22.0" style="fill:#fefefe;"/>
   <text x="272.0" y="184.0" style="fill:orange;font-family:Helvetica;font-size:13.2px;stroke:orange;stroke-width:0.8;">1</text>
  </g>
  <g>
   <rect x="294.0" y="162.0" width="22.0" height="22.0" style="fill:#fefefe;"/>
   <text x="294.0" y="184.0" style="fill:orange;font-family:Helvetica;font-size:13.2px;stroke:orange;stroke-width:0.8;">1</text>
  </g>
  <g>
   <rect x="316.0" y="162.0" width="22.0" height="22.0" style="fill:#ffffff;"/>
   <text x="316.0" y="184.0" style="fill:orange;font-family:Helvetica;font-size:13.2px;stroke:orange;stroke-width:0.8;">0</text>
  </g>
  <text x="10.0" y="206.0" title="trafficking" style="fill:black;font-family:Helvetica;font-size:13.2px;font-weight:bold;">trafficking</text>
  <g>
   <rect x="140.0" y="184.0" width="22.0" height="22.0" style="fill:#eeeeee;"/>
   <text x="140.0" y="206.0" style="fill:orange;font-family:Helvetica;font-size:13.2px;stroke:orange;stroke-width:0.8;">14</text>
  </g>
  <g>
   <rect x="162.0" y="184.0" width="22.0" height="22.0" style="fill:#f8f8f8;"/>
   <text x="162.0" y="206.0" style="fill:orange;font-family:Helvetica;font-size:13.2px;stroke:orange;stroke-width:0.8;">6</text>
  </g>
  <g>
   <rect x="184.0" y="184.0" width="22.0" height="22.0" style="fill:#eeeeee;"/>
   <text x="184.0" y="206.0" style="fill:orange;font-family:Helvetica;font-size:13.2px;stroke:orange;stroke-width:0.8;">14</text>
  </g>
  <g>
   <rect x="206.0" y="184.0" width="22.0" height="22.0" style="fill:#fefefe;"/>
   <text x="206.0" y="206.0" style="fill:orange;font-family:Helvetica;font-size:13.2px;stroke:orange;stroke-width:0.8;">1</text>
  </g>
  <g>
   <rect x="228.0" y="184.0" width="22.0" height="22.0" style="fill:#ffffff;"/>
   <text x="228.0" y="206.0" style="fill:orange;font-family:Helvetica;font-size:13.2px;stroke:orange;stroke-width:0.8;">0</text>
  </g>
  <g>
   <rect x="250.0" y="184.0" width="22.0" height="22.0" style="fill:#fdfdfd;"/>
   <text x="250.0" y="206.0" style="fill:orange;font-family:Helvetica;font-size:13.2px;stroke:orange;stroke-width:0.8;">2</text>
  </g>
  <g>
   <rect x="272.0" y="184.0" width="22.0" height="22.0" style="fill:#ffffff;"/>
   <text x="272.0" y="206.0" style="fill:orange;font-family:Helvetica;font-size:13.2px;stroke:orange;stroke-width:0.8;">0</text>
  </g>
  <g>
   <rect x="294.0" y="184.0" width="22.0" height="22.0" style="fill:#ffffff;"/>
   <text x="294.0" y="206.0" style="fill:orange;font-family:Helvetica;font-size:13.2px;stroke:orange;stroke-width:0.8;">0</text>
  </g>
  <g>
   <rect x="316.0" y="184.0" width="22.0" height="22.0" style="fill:#ffffff;"/>
   <text x="316.0" y="206.0" style="fill:orange;font-family:Helvetica;font-size:13.2px;stroke:orange;stroke-width:0.8;">0</text>
  </g>
  <text x="10.0" y="228.0" title="refugee" style="fill:black;font-family:Helvetica;font-size:13.2px;font-weight:bold;">refugee</text>
  <g>
   <rect x="140.0" y="206.0" width="22.0" height="22.0" style="fill:#f9f9f9;"/>
   <text x="140.0" y="228.0" style="fill:orange;font-family:Helvetica;font-size:13.2px;stroke:orange;stroke-width:0.8;">5</text>
  </g>
  <g>
   <rect x="162.0" y="206.0" width="22.0" height="22.0" style="fill:#fafafa;"/>
   <text x="162.0" y="228.0" style="fill:orange;font-family:Helvetica;font-size:13.2px;stroke:orange;stroke-width:0.8;">4</text>
  </g>
  <g>
   <rect x="184.0" y="206.0" width="22.0" height="22.0" style="fill:#fefefe;"/>
   <text x="184.0" y="228.0" style="fill:orange;font-family:Helvetica;font-size:13.2px;stroke:orange;stroke-width:0.8;">1</text>
  </g>
  <g>
   <rect x="206.0" y="206.0" width="22.0" height="22.0" style="fill:#f9f9f9;"/>
   <text x="206.0" y="228.0" style="fill:orange;font-family:Helvetica;font-size:13.2px;stroke:orange;stroke-width:0.8;">5</text>
  </g>
  <g>
   <rect x="228.0" y="206.0" width="22.0" height="22.0" style="fill:#fdfdfd;"/>
   <text x="228.0" y="228.0" style="fill:orange;font-family:Helvetica;font-size:13.2px;stroke:orange;stroke-width:0.8;">2</text>
  </g>
  <g>
   <rect x="250.0" y="206.0" width="22.0" height="22.0" style="fill:#fefefe;"/>
   <text x="250.0" y="228.0" style="fill:orange;font-family:Helvetica;font-size:13.2px;stroke:orange;stroke-width:0.8;">1</text>
  </g>
  <g>
   <rect x="272.0" y="206.0" width="22.0" height="22.0" style="fill:#fefefe;"/>
   <text x="272.0" y="228.0" style="fill:orange;font-family:Helvetica;font-size:13.2px;stroke:orange;stroke-width:0.8;">1</text>
  </g>
  <g>
   <rect x="294.0" y="206.0" width="22.0" height="22.0" style="fill:#fefefe;"/>
   <text x="294.0" y="228.0" style="fill:orange;font-family:Helvetica;font-size:13.2px;stroke:orange;stroke-width:0.8;">1</text>
  </g>
  <g>
   <rect x="316.0" y="206.0" width="22.0" height="22.0" style="fill:#ffffff;"/>
   <text x="316.0" y="228.0" style="fill:orange;font-family:Helvetica;font-size:13.2px;stroke:orange;stroke-width:0.8;">0</text>
  </g>
  <text x="10.0" y="250.0" title="poverty" style="fill:black;font-family:Helvetica;font-size:13.2px;font-weight:bold;">poverty</text>
  <g>
   <rect x="140.0" y="228.0" width="22.0" height="22.0" style="fill:#f8f8f8;"/>
   <text x="140.0" y="250.0" style="fill:orange;font-family:Helvetica;font-size:13.2px;stroke:orange;stroke-width:0.8;">6</text>
  </g>
  <g>
   <rect x="162.0" y="228.0" width="22.0" height="22.0" style="fill:#fafafa;"/>
   <text x="162.0" y="250.0" style="fill:orange;font-family:Helvetica;font-size:13.2px;stroke:orange;stroke-width:0.8;">4</text>
  </g>
  <g>
   <rect x="184.0" y="228.0" width="22.0" height="22.0" style="fill:#ffffff;"/>
   <text x="184.0" y="250.0" style="fill:orange;font-family:Helvetica;font-size:13.2px;stroke:orange;stroke-width:0.8;">0</text>
  </g>
  <g>
   <rect x="206.0" y="228.0" width="22.0" height="22.0" style="fill:#fdfdfd;"/>
   <text x="206.0" y="250.0" style="fill:orange;font-family:Helvetica;font-size:13.2px;stroke:orange;stroke-width:0.8;">2</text>
  </g>
  <g>
   <rect x="228.0" y="228.0" width="22.0" height="22.0" style="fill:#f8f8f8;"/>
   <text x="228.0" y="250.0" style="fill:orange;font-family:Helvetica;font-size:13.2px;stroke:orange;stroke-width:0.8;">6</text>
  </g>
  <g>
   <rect x="250.0" y="228.0" width="22.0" height="22.0" style="fill:#ffffff;"/>
   <text x="250.0" y="250.0" style="fill:orange;font-family:Helvetica;font-size:13.2px;stroke:orange;stroke-width:0.8;">0</text>
  </g>
  <g>
   <rect x="272.0" y="228.0" width="22.0" height="22.0" style="fill:#fefefe;"/>
   <text x="272.0" y="250.0" style="fill:orange;font-family:Helvetica;font-size:13.2px;stroke:orange;stroke-width:0.8;">1</text>
  </g>
  <g>
   <rect x="294.0" y="228.0" width="22.0" height="22.0" style="fill:#ffffff;"/>
   <text x="294.0" y="250.0" style="fill:orange;font-family:Helvetica;font-size:13.2px;stroke:orange;stroke-width:0.8;">0</text>
  </g>
  <g>
   <rect x="316.0" y="228.0" width="22.0" height="22.0" style="fill:#ffffff;"/>
   <text x="316.0" y="250.0" style="fill:orange;font-family:Helvetica;font-size:13.2px;stroke:orange;stroke-width:0.8;">0</text>
  </g>
  <text x="10.0" y="272.0" title="war" style="fill:black;font-family:Helvetica;font-size:13.2px;font-weight:bold;">war</text>
  <g>
   <rect x="140.0" y="250.0" width="22.0" height="22.0" style="fill:#fdfdfd;"/>
   <text x="140.0" y="272.0" style="fill:orange;font-family:Helvetica;font-size:13.2px;stroke:orange;stroke-width:0.8;">2</text>
  </g>
  <g>
   <rect x="162.0" y="250.0" width="22.0" height="22.0" style="fill:#fefefe;"/>
   <text x="162.0" y="272.0" style="fill:orange;font-family:Helvetica;font-size:13.2px;stroke:orange;stroke-width:0.8;">1</text>
  </g>
  <g>
   <rect x="184.0" y="250.0" width="22.0" height="22.0" style="fill:#fdfdfd;"/>
   <text x="184.0" y="272.0" style="fill:orange;font-family:Helvetica;font-size:13.2px;stroke:orange;stroke-width:0.8;">2</text>
  </g>
  <g>
   <rect x="206.0" y="250.0" width="22.0" height="22.0" style="fill:#fefefe;"/>
   <text x="206.0" y="272.0" style="fill:orange;font-family:Helvetica;font-size:13.2px;stroke:orange;stroke-width:0.8;">1</text>
  </g>
  <g>
   <rect x="228.0" y="250.0" width="22.0" height="22.0" style="fill:#ffffff;"/>
   <text x="228.0" y="272.0" style="fill:orange;font-family:Helvetica;font-size:13.2px;stroke:orange;stroke-width:0.8;">0</text>
  </g>
  <g>
   <rect x="250.0" y="250.0" width="22.0" height="22.0" style="fill:#fdfdfd;"/>
   <text x="250.0" y="272.0" style="fill:orange;font-family:Helvetica;font-size:13.2px;stroke:orange;stroke-width:0.8;">2</text>
  </g>
  <g>
   <rect x="272.0" y="250.0" width="22.0" height="22.0" style="fill:#ffffff;"/>
   <text x="272.0" y="272.0" style="fill:orange;font-family:Helvetica;font-size:13.2px;stroke:orange;stroke-width:0.8;">0</text>
  </g>
  <g>
   <rect x="294.0" y="250.0" width="22.0" height="22.0" style="fill:#ffffff;"/>
   <text x="294.0" y="272.0" style="fill:orange;font-family:Helvetica;font-size:13.2px;stroke:orange;stroke-width:0.8;">0</text>
  </g>
  <g>
   <rect x="316.0" y="250.0" width="22.0" height="22.0" style="fill:#ffffff;"/>
   <text x="316.0" y="272.0" style="fill:orange;font-family:Helvetica;font-size:13.2px;stroke:orange;stroke-width:0.8;">0</text>
  </g>
  <text x="10.0" y="294.0" title="Human migration" style="fill:black;font-family:Helvetica;font-size:13.2px;font-weight:bold;">Human migration</text>
  <g>
   <rect x="140.0" y="272.0" width="22.0" height="22.0" style="fill:#fdfdfd;"/>
   <text x="140.0" y="294.0" style="fill:orange;font-family:Helvetica;font-size:13.2px;stroke:orange;stroke-width:0.8;">2</text>
  </g>
  <g>
   <rect x="162.0" y="272.0" width="22.0" height="22.0" style="fill:#fefefe;"/>
   <text x="162.0" y="294.0" style="fill:orange;font-family:Helvetica;font-size:13.2px;stroke:orange;stroke-width:0.8;">1</text>
  </g>
  <g>
   <rect x="184.0" y="272.0" width="22.0" height="22.0" style="fill:#ffffff;"/>
   <text x="184.0" y="294.0" style="fill:orange;font-family:Helvetica;font-size:13.2px;stroke:orange;stroke-width:0.8;">0</text>
  </g>
  <g>
   <rect x="206.0" y="272.0" width="22.0" height="22.0" style="fill:#fefefe;"/>
   <text x="206.0" y="294.0" style="fill:orange;font-family:Helvetica;font-size:13.2px;stroke:orange;stroke-width:0.8;">1</text>
  </g>
  <g>
   <rect x="228.0" y="272.0" width="22.0" height="22.0" style="fill:#fefefe;"/>
   <text x="228.0" y="294.0" style="fill:orange;font-family:Helvetica;font-size:13.2px;stroke:orange;stroke-width:0.8;">1</text>
  </g>
  <g>
   <rect x="250.0" y="272.0" width="22.0" height="22.0" style="fill:#ffffff;"/>
   <text x="250.0" y="294.0" style="fill:orange;font-family:Helvetica;font-size:13.2px;stroke:orange;stroke-width:0.8;">0</text>
  </g>
  <g>
   <rect x="272.0" y="272.0" width="22.0" height="22.0" style="fill:#fdfdfd;"/>
   <text x="272.0" y="294.0" style="fill:orange;font-family:Helvetica;font-size:13.2px;stroke:orange;stroke-width:0.8;">2</text>
  </g>
  <g>
   <rect x="294.0" y="272.0" width="22.0" height="22.0" style="fill:#ffffff;"/>
   <text x="294.0" y="294.0" style="fill:orange;font-family:Helvetica;font-size:13.2px;stroke:orange;stroke-width:0.8;">0</text>
  </g>
  <g>
   <rect x="316.0" y="272.0" width="22.0" height="22.0" style="fill:#fefefe;"/>
   <text x="316.0" y="294.0" style="fill:orange;font-family:Helvetica;font-size:13.2px;stroke:orange;stroke-width:0.8;">1</text>
  </g>
  <text x="10.0" y="316.0" title="forced labor," style="fill:black;font-family:Helvetica;font-size:13.2px;font-weight:bold;">forced labor,</text>
  <g>
   <rect x="140.0" y="294.0" width="22.0" height="22.0" style="fill:#fefefe;"/>
   <text x="140.0" y="316.0" style="fill:orange;font-family:Helvetica;font-size:13.2px;stroke:orange;stroke-width:0.8;">1</text>
  </g>
  <g>
   <rect x="162.0" y="294.0" width="22.0" height="22.0" style="fill:#fefefe;"/>
   <text x="162.0" y="316.0" style="fill:orange;font-family:Helvetica;font-size:13.2px;stroke:orange;stroke-width:0.8;">1</text>
  </g>
  <g>
   <rect x="184.0" y="294.0" width="22.0" height="22.0" style="fill:#ffffff;"/>
   <text x="184.0" y="316.0" style="fill:orange;font-family:Helvetica;font-size:13.2px;stroke:orange;stroke-width:0.8;">0</text>
  </g>
  <g>
   <rect x="206.0" y="294.0" width="22.0" height="22.0" style="fill:#fefefe;"/>
   <text x="206.0" y="316.0" style="fill:orange;font-family:Helvetica;font-size:13.2px;stroke:orange;stroke-width:0.8;">1</text>
  </g>
  <g>
   <rect x="228.0" y="294.0" width="22.0" height="22.0" style="fill:#ffffff;"/>
   <text x="228.0" y="316.0" style="fill:orange;font-family:Helvetica;font-size:13.2px;stroke:orange;stroke-width:0.8;">0</text>
  </g>
  <g>
   <rect x="250.0" y="294.0" width="22.0" height="22.0" style="fill:#ffffff;"/>
   <text x="250.0" y="316.0" style="fill:orange;font-family:Helvetica;font-size:13.2px;stroke:orange;stroke-width:0.8;">0</text>
  </g>
  <g>
   <rect x="272.0" y="294.0" width="22.0" height="22.0" style="fill:#ffffff;"/>
   <text x="272.0" y="316.0" style="fill:orange;font-family:Helvetica;font-size:13.2px;stroke:orange;stroke-width:0.8;">0</text>
  </g>
  <g>
   <rect x="294.0" y="294.0" width="22.0" height="22.0" style="fill:#fefefe;"/>
   <text x="294.0" y="316.0" style="fill:orange;font-family:Helvetica;font-size:13.2px;stroke:orange;stroke-width:0.8;">1</text>
  </g>
  <g>
   <rect x="316.0" y="294.0" width="22.0" height="22.0" style="fill:#ffffff;"/>
   <text x="316.0" y="316.0" style="fill:orange;font-family:Helvetica;font-size:13.2px;stroke:orange;stroke-width:0.8;">0</text>
  </g>
  <text x="10.0" y="338.0" title="Human migration," style="fill:black;font-family:Helvetica;font-size:13.2px;font-weight:bold;">Human migration</text>
  <g>
   <rect x="140.0" y="316.0" width="22.0" height="22.0" style="fill:#fefefe;"/>
   <text x="140.0" y="338.0" style="fill:orange;font-family:Helvetica;font-size:13.2px;stroke:orange;stroke-width:0.8;">1</text>
  </g>
  <g>
   <rect x="162.0" y="316.0" width="22.0" height="22.0" style="fill:#ffffff;"/>
   <text x="162.0" y="338.0" style="fill:orange;font-family:Helvetica;font-size:13.2px;stroke:orange;stroke-width:0.8;">0</text>
  </g>
  <g>
   <rect x="184.0" y="316.0" width="22.0" height="22.0" style="fill:#ffffff;"/>
   <text x="184.0" y="338.0" style="fill:orange;font-family:Helvetica;font-size:13.2px;stroke:orange;stroke-width:0.8;">0</text>
  </g>
  <g>
   <rect x="206.0" y="316.0" width="22.0" height="22.0" style="fill:#ffffff;"/>
   <text x="206.0" y="338.0" style="fill:orange;font-family:Helvetica;font-size:13.2px;stroke:orange;stroke-width:0.8;">0</text>
  </g>
  <g>
   <rect x="228.0" y="316.0" width="22.0" height="22.0" style="fill:#ffffff;"/>
   <text x="228.0" y="338.0" style="fill:orange;font-family:Helvetica;font-size:13.2px;stroke:orange;stroke-width:0.8;">0</text>
  </g>
  <g>
   <rect x="250.0" y="316.0" width="22.0" height="22.0" style="fill:#ffffff;"/>
   <text x="250.0" y="338.0" style="fill:orange;font-family:Helvetica;font-size:13.2px;stroke:orange;stroke-width:0.8;">0</text>
  </g>
  <g>
   <rect x="272.0" y="316.0" width="22.0" height="22.0" style="fill:#fefefe;"/>
   <text x="272.0" y="338.0" style="fill:orange;font-family:Helvetica;font-size:13.2px;stroke:orange;stroke-width:0.8;">1</text>
  </g>
  <g>
   <rect x="294.0" y="316.0" width="22.0" height="22.0" style="fill:#ffffff;"/>
   <text x="294.0" y="338.0" style="fill:orange;font-family:Helvetica;font-size:13.2px;stroke:orange;stroke-width:0.8;">0</text>
  </g>
  <g>
   <rect x="316.0" y="316.0" width="22.0" height="22.0" style="fill:#fefefe;"/>
   <text x="316.0" y="338.0" style="fill:orange;font-family:Helvetica;font-size:13.2px;stroke:orange;stroke-width:0.8;">1</text>
  </g>
 </g>
</svg>
