<?xml version="1.0" encoding="UTF-8"?>
<svg height="20.0" width="519.6041666666667" xmlns="http://www.w3.org/2000/svg">
 <g>
  <rect x="10.0" y="-215.0" width="2.6041666666666665" height="225.0" style="fill:cyan;opacity:0.3;"/>
  <text x="10.0" y="10.0" transform="matrix(6.123233995736766E-17,-1.0,1.0,6.123233995736766E-17,0.0,20.0)" style="font-size:1.0000000000000013px;">United States</text>
  <rect x="12.0" y="-149.0" width="2.6041666666666665" height="159.0" style="fill:cyan;opacity:0.3;"/>
  <text x="12.0" y="10.0" transform="matrix(6.123233995736766E-17,-1.0,1.0,6.123233995736766E-17,2.0,22.0)" style="font-size:1.0000000000000013px;">Egypt</text>
  <rect x="15.0" y="-140.0" width="2.6041666666666665" height="150.0" style="fill:cyan;opacity:0.3;"/>
  <text x="15.0" y="10.0" transform="matrix(6.123233995736766E-17,-1.0,1.0,6.123233995736766E-17,4.999999999999998,25.0)" style="font-size:1.0000000000000013px;">Lebanon</text>
  <rect x="17.0" y="-125.0" width="2.6041666666666665" height="135.0" style="fill:cyan;opacity:0.3;"/>
  <text x="17.0" y="10.0" transform="matrix(6.123233995736766E-17,-1.0,1.0,6.123233995736766E-17,6.999999999999998,27.0)" style="font-size:1.0000000000000013px;">Iraq</text>
  <rect x="20.0" y="-125.0" width="2.6041666666666665" height="135.0" style="fill:cyan;opacity:0.3;"/>
  <text x="20.0" y="10.0" transform="matrix(6.123233995736766E-17,-1.0,1.0,6.123233995736766E-17,9.999999999999998,30.0)" style="font-size:1.0000000000000013px;">Qatar</text>
  <rect x="23.0" y="-121.0" width="2.6041666666666665" height="131.0" style="fill:cyan;opacity:0.3;"/>
  <text x="23.0" y="10.0" transform="matrix(6.123233995736766E-17,-1.0,1.0,6.123233995736766E-17,12.999999999999998,33.0)" style="font-size:1.0000000000000013px;">Jordan</text>
  <rect x="25.0" y="-100.0" width="2.6041666666666665" height="110.0" style="fill:cyan;opacity:0.3;"/>
  <text x="25.0" y="10.0" transform="matrix(6.123233995736766E-17,-1.0,1.0,6.123233995736766E-17,14.999999999999998,35.0)" style="font-size:1.0000000000000013px;">Yemen</text>
  <rect x="28.0" y="-100.0" width="2.6041666666666665" height="110.0" style="fill:cyan;opacity:0.3;"/>
  <text x="28.0" y="10.0" transform="matrix(6.123233995736766E-17,-1.0,1.0,6.123233995736766E-17,18.0,38.0)" style="font-size:1.0000000000000013px;">Pakistan</text>
  <rect x="30.0" y="-97.0" width="2.6041666666666665" height="107.0" style="fill:cyan;opacity:0.3;"/>
  <text x="30.0" y="10.0" transform="matrix(6.123233995736766E-17,-1.0,1.0,6.123233995736766E-17,20.0,40.0)" style="font-size:1.0000000000000013px;">Sudan</text>
  <rect x="33.0" y="-95.0" width="2.6041666666666665" height="105.0" style="fill:cyan;opacity:0.3;"/>
  <text x="33.0" y="10.0" transform="matrix(6.123233995736766E-17,-1.0,1.0,6.123233995736766E-17,23.0,43.0)" style="font-size:1.0000000000000013px;">China</text>
  <rect x="36.0" y="-88.0" width="2.6041666666666665" height="98.0" style="fill:cyan;opacity:0.3;"/>
  <text x="36.0" y="10.0" transform="matrix(6.123233995736766E-17,-1.0,1.0,6.123233995736766E-17,26.0,46.0)" style="font-size:1.0000000000000013px;">Libya</text>
  <rect x="38.0" y="-83.0" width="2.6041666666666665" height="93.0" style="fill:cyan;opacity:0.3;"/>
  <text x="38.0" y="10.0" transform="matrix(6.123233995736766E-17,-1.0,1.0,6.123233995736766E-17,28.0,48.0)" style="font-size:1.0000000000000013px;">Saudi Arabia,</text>
  <rect x="41.0" y="-83.0" width="2.6041666666666665" height="93.0" style="fill:cyan;opacity:0.3;"/>
  <text x="41.0" y="10.0" transform="matrix(6.123233995736766E-17,-1.0,1.0,6.123233995736766E-17,31.0,51.0)" style="font-size:1.0000000000000013px;">Saudi Arabia</text>
  <rect x="43.0" y="-76.0" width="2.6041666666666665" height="86.0" style="fill:cyan;opacity:0.3;"/>
  <text x="43.0" y="10.0" transform="matrix(6.123233995736766E-17,-1.0,1.0,6.123233995736766E-17,33.0,53.0)" style="font-size:1.0000000000000013px;">Kuwait</text>
  <rect x="46.0" y="-74.0" width="2.6041666666666665" height="84.0" style="fill:cyan;opacity:0.3;"/>
  <text x="46.0" y="10.0" transform="matrix(6.123233995736766E-17,-1.0,1.0,6.123233995736766E-17,36.0,56.0)" style="font-size:1.0000000000000013px;">Tunisia</text>
  <rect x="49.0" y="-72.0" width="2.6041666666666665" height="82.0" style="fill:cyan;opacity:0.3;"/>
  <text x="49.0" y="10.0" transform="matrix(6.123233995736766E-17,-1.0,1.0,6.123233995736766E-17,39.0,59.0)" style="font-size:1.0000000000000013px;">Mexico</text>
  <rect x="51.0" y="-67.0" width="2.6041666666666665" height="77.0" style="fill:cyan;opacity:0.3;"/>
  <text x="51.0" y="10.0" transform="matrix(6.123233995736766E-17,-1.0,1.0,6.123233995736766E-17,41.0,61.0)" style="font-size:1.0000000000000013px;">Morocco</text>
  <rect x="54.0" y="-60.0" width="2.6041666666666665" height="70.0" style="fill:cyan;opacity:0.3;"/>
  <text x="54.0" y="10.0" transform="matrix(6.123233995736766E-17,-1.0,1.0,6.123233995736766E-17,44.0,64.0)" style="font-size:1.0000000000000013px;">United States,</text>
  <rect x="56.0" y="-57.0" width="2.6041666666666665" height="67.0" style="fill:cyan;opacity:0.3;"/>
  <text x="56.0" y="10.0" transform="matrix(6.123233995736766E-17,-1.0,1.0,6.123233995736766E-17,46.0,66.0)" style="font-size:1.0000000000000013px;">Afghanistan</text>
  <rect x="59.0" y="-53.0" width="2.6041666666666665" height="63.0" style="fill:cyan;opacity:0.3;"/>
  <text x="59.0" y="10.0" transform="matrix(6.123233995736766E-17,-1.0,1.0,6.123233995736766E-17,49.0,69.0)" style="font-size:1.0000000000000013px;">United Arab Emi</text>
  <rect x="62.0" y="-48.0" width="2.6041666666666665" height="58.0" style="fill:cyan;opacity:0.3;"/>
  <text x="62.0" y="10.0" transform="matrix(6.123233995736766E-17,-1.0,1.0,6.123233995736766E-17,52.0,72.0)" style="font-size:1.0000000000000013px;">Germany</text>
  <rect x="64.0" y="-48.0" width="2.6041666666666665" height="58.0" style="fill:cyan;opacity:0.3;"/>
  <text x="64.0" y="10.0" transform="matrix(6.123233995736766E-17,-1.0,1.0,6.123233995736766E-17,54.0,74.0)" style="font-size:1.0000000000000013px;">Algeria</text>
  <rect x="67.0" y="-46.0" width="2.6041666666666665" height="56.0" style="fill:cyan;opacity:0.3;"/>
  <text x="67.0" y="10.0" transform="matrix(6.123233995736766E-17,-1.0,1.0,6.123233995736766E-17,57.0,77.0)" style="font-size:1.0000000000000013px;">Turkey</text>
  <rect x="69.0" y="-46.0" width="2.6041666666666665" height="56.0" style="fill:cyan;opacity:0.3;"/>
  <text x="69.0" y="10.0" transform="matrix(6.123233995736766E-17,-1.0,1.0,6.123233995736766E-17,59.0,79.0)" style="font-size:1.0000000000000013px;">Spain</text>
  <rect x="72.0" y="-46.0" width="2.6041666666666665" height="56.0" style="fill:cyan;opacity:0.3;"/>
  <text x="72.0" y="10.0" transform="matrix(6.123233995736766E-17,-1.0,1.0,6.123233995736766E-17,62.0,82.0)" style="font-size:1.0000000000000013px;">Oman</text>
  <rect x="75.0" y="-41.0" width="2.6041666666666665" height="51.0" style="fill:cyan;opacity:0.3;"/>
  <text x="75.0" y="10.0" transform="matrix(6.123233995736766E-17,-1.0,1.0,6.123233995736766E-17,65.0,85.0)" style="font-size:1.0000000000000013px;">Bahrain</text>
  <rect x="77.0" y="-41.0" width="2.6041666666666665" height="51.0" style="fill:cyan;opacity:0.3;"/>
  <text x="77.0" y="10.0" transform="matrix(6.123233995736766E-17,-1.0,1.0,6.123233995736766E-17,67.0,87.0)" style="font-size:1.0000000000000013px;">Djibouti</text>
  <rect x="80.0" y="-41.0" width="2.6041666666666665" height="51.0" style="fill:cyan;opacity:0.3;"/>
  <text x="80.0" y="10.0" transform="matrix(6.123233995736766E-17,-1.0,1.0,6.123233995736766E-17,70.0,90.0)" style="font-size:1.0000000000000013px;">Australia</text>
  <rect x="82.0" y="-36.0" width="2.6041666666666665" height="46.0" style="fill:cyan;opacity:0.3;"/>
  <text x="82.0" y="10.0" transform="matrix(6.123233995736766E-17,-1.0,1.0,6.123233995736766E-17,72.0,92.0)" style="font-size:1.0000000000000013px;">Sweden</text>
  <rect x="85.0" y="-32.0" width="2.6041666666666665" height="42.0" style="fill:cyan;opacity:0.3;"/>
  <text x="85.0" y="10.0" transform="matrix(6.123233995736766E-17,-1.0,1.0,6.123233995736766E-17,75.0,95.0)" style="font-size:1.0000000000000013px;">Japan</text>
  <rect x="88.0" y="-32.0" width="2.6041666666666665" height="42.0" style="fill:cyan;opacity:0.3;"/>
  <text x="88.0" y="10.0" transform="matrix(6.123233995736766E-17,-1.0,1.0,6.123233995736766E-17,78.0,98.0)" style="font-size:1.0000000000000013px;">France</text>
  <rect x="90.0" y="-29.0" width="2.6041666666666665" height="39.0" style="fill:cyan;opacity:0.3;"/>
  <text x="90.0" y="10.0" transform="matrix(6.123233995736766E-17,-1.0,1.0,6.123233995736766E-17,80.0,100.0)" style="font-size:1.0000000000000013px;">Canada</text>
  <rect x="93.0" y="-29.0" width="2.6041666666666665" height="39.0" style="fill:cyan;opacity:0.3;"/>
  <text x="93.0" y="10.0" transform="matrix(6.123233995736766E-17,-1.0,1.0,6.123233995736766E-17,83.0,103.0)" style="font-size:1.0000000000000013px;">Somalia</text>
  <rect x="95.0" y="-25.0" width="2.6041666666666665" height="35.0" style="fill:cyan;opacity:0.3;"/>
  <text x="95.0" y="10.0" transform="matrix(6.123233995736766E-17,-1.0,1.0,6.123233995736766E-17,85.0,105.0)" style="font-size:1.0000000000000013px;">Brazil</text>
  <rect x="98.0" y="-25.0" width="2.6041666666666665" height="35.0" style="fill:cyan;opacity:0.3;"/>
  <text x="98.0" y="10.0" transform="matrix(6.123233995736766E-17,-1.0,1.0,6.123233995736766E-17,88.0,108.0)" style="font-size:1.0000000000000013px;">Italy</text>
  <rect x="101.0" y="-25.0" width="2.6041666666666665" height="35.0" style="fill:cyan;opacity:0.3;"/>
  <text x="101.0" y="10.0" transform="matrix(6.123233995736766E-17,-1.0,1.0,6.123233995736766E-17,91.0,111.0)" style="font-size:1.0000000000000013px;">Denmark</text>
  <rect x="103.0" y="-22.0" width="2.6041666666666665" height="32.0" style="fill:cyan;opacity:0.3;"/>
  <text x="103.0" y="10.0" transform="matrix(6.123233995736766E-17,-1.0,1.0,6.123233995736766E-17,93.0,113.0)" style="font-size:1.0000000000000013px;">United Kingdom</text>
  <rect x="106.0" y="-20.0" width="2.6041666666666665" height="30.0" style="fill:cyan;opacity:0.3;"/>
  <text x="106.0" y="10.0" transform="matrix(6.123233995736766E-17,-1.0,1.0,6.123233995736766E-17,96.0,116.0)" style="font-size:1.0000000000000013px;">United States.</text>
  <rect x="108.0" y="-20.0" width="2.6041666666666665" height="30.0" style="fill:cyan;opacity:0.3;"/>
  <text x="108.0" y="10.0" transform="matrix(6.123233995736766E-17,-1.0,1.0,6.123233995736766E-17,98.0,118.0)" style="font-size:1.0000000000000013px;">Israel</text>
  <rect x="111.0" y="-18.0" width="2.6041666666666665" height="28.0" style="fill:cyan;opacity:0.3;"/>
  <text x="111.0" y="10.0" transform="matrix(6.123233995736766E-17,-1.0,1.0,6.123233995736766E-17,101.0,121.0)" style="font-size:1.0000000000000013px;">Saudi Arabia.</text>
  <rect x="114.0" y="-15.0" width="2.6041666666666665" height="25.0" style="fill:cyan;opacity:0.3;"/>
  <text x="114.0" y="10.0" transform="matrix(6.123233995736766E-17,-1.0,1.0,6.123233995736766E-17,104.0,124.0)" style="font-size:1.0000000000000013px;">Finland</text>
  <rect x="116.0" y="-15.0" width="2.6041666666666665" height="25.0" style="fill:cyan;opacity:0.3;"/>
  <text x="116.0" y="10.0" transform="matrix(6.123233995736766E-17,-1.0,1.0,6.123233995736766E-17,106.0,126.0)" style="font-size:1.0000000000000013px;">South Sudan</text>
  <rect x="119.0" y="-13.0" width="2.6041666666666665" height="23.0" style="fill:cyan;opacity:0.3;"/>
  <text x="119.0" y="10.0" transform="matrix(6.123233995736766E-17,-1.0,1.0,6.123233995736766E-17,109.0,129.0)" style="font-size:1.0000000000000013px;">India</text>
  <rect x="121.0" y="-13.0" width="2.6041666666666665" height="23.0" style="fill:cyan;opacity:0.3;"/>
  <text x="121.0" y="10.0" transform="matrix(6.123233995736766E-17,-1.0,1.0,6.123233995736766E-17,111.0,131.0)" style="font-size:1.0000000000000013px;">Malta</text>
  <rect x="124.0" y="-13.0" width="2.6041666666666665" height="23.0" style="fill:cyan;opacity:0.3;"/>
  <text x="124.0" y="10.0" transform="matrix(6.123233995736766E-17,-1.0,1.0,6.123233995736766E-17,114.0,134.0)" style="font-size:1.0000000000000013px;">Netherlands</text>
  <rect x="127.0" y="-13.0" width="2.6041666666666665" height="23.0" style="fill:cyan;opacity:0.3;"/>
  <text x="127.0" y="10.0" transform="matrix(6.123233995736766E-17,-1.0,1.0,6.123233995736766E-17,117.0,137.0)" style="font-size:1.0000000000000013px;">Norway</text>
  <rect x="129.0" y="-11.0" width="2.6041666666666665" height="21.0" style="fill:cyan;opacity:0.3;"/>
  <text x="129.0" y="10.0" transform="matrix(6.123233995736766E-17,-1.0,1.0,6.123233995736766E-17,119.0,139.0)" style="font-size:1.0000000000000013px;">Congo</text>
  <rect x="132.0" y="-11.0" width="2.6041666666666665" height="21.0" style="fill:cyan;opacity:0.3;"/>
  <text x="132.0" y="10.0" transform="matrix(6.123233995736766E-17,-1.0,1.0,6.123233995736766E-17,121.99999999999999,142.0)" style="font-size:1.0000000000000013px;">Switzerland</text>
  <rect x="135.0" y="-11.0" width="2.6041666666666665" height="21.0" style="fill:cyan;opacity:0.3;"/>
  <text x="135.0" y="10.0" transform="matrix(6.123233995736766E-17,-1.0,1.0,6.123233995736766E-17,124.99999999999999,145.0)" style="font-size:1.0000000000000013px;">United Arab Emi</text>
  <rect x="137.0" y="-8.0" width="2.6041666666666665" height="18.0" style="fill:cyan;opacity:0.3;"/>
  <text x="137.0" y="10.0" transform="matrix(6.123233995736766E-17,-1.0,1.0,6.123233995736766E-17,126.99999999999999,147.0)" style="font-size:1.0000000000000013px;">Nigeria</text>
  <rect x="140.0" y="-8.0" width="2.6041666666666665" height="18.0" style="fill:cyan;opacity:0.3;"/>
  <text x="140.0" y="10.0" transform="matrix(6.123233995736766E-17,-1.0,1.0,6.123233995736766E-17,130.0,150.0)" style="font-size:1.0000000000000013px;">Syrian Arab Rep</text>
  <rect x="142.0" y="-8.0" width="2.6041666666666665" height="18.0" style="fill:cyan;opacity:0.3;"/>
  <text x="142.0" y="10.0" transform="matrix(6.123233995736766E-17,-1.0,1.0,6.123233995736766E-17,132.0,152.0)" style="font-size:1.0000000000000013px;">United Arab Emi</text>
  <rect x="145.0" y="-8.0" width="2.6041666666666665" height="18.0" style="fill:cyan;opacity:0.3;"/>
  <text x="145.0" y="10.0" transform="matrix(6.123233995736766E-17,-1.0,1.0,6.123233995736766E-17,135.0,155.0)" style="font-size:1.0000000000000013px;">New Zealand</text>
  <rect x="148.0" y="-8.0" width="2.6041666666666665" height="18.0" style="fill:cyan;opacity:0.3;"/>
  <text x="148.0" y="10.0" transform="matrix(6.123233995736766E-17,-1.0,1.0,6.123233995736766E-17,138.0,158.0)" style="font-size:1.0000000000000013px;">Ethiopia</text>
  <rect x="150.0" y="-8.0" width="2.6041666666666665" height="18.0" style="fill:cyan;opacity:0.3;"/>
  <text x="150.0" y="10.0" transform="matrix(6.123233995736766E-17,-1.0,1.0,6.123233995736766E-17,140.0,160.0)" style="font-size:1.0000000000000013px;">Niger</text>
  <rect x="153.0" y="-6.0" width="2.6041666666666665" height="16.0" style="fill:cyan;opacity:0.3;"/>
  <text x="153.0" y="10.0" transform="matrix(6.123233995736766E-17,-1.0,1.0,6.123233995736766E-17,143.0,163.0)" style="font-size:1.0000000000000013px;">Fiji</text>
  <rect x="155.0" y="-6.0" width="2.6041666666666665" height="16.0" style="fill:cyan;opacity:0.3;"/>
  <text x="155.0" y="10.0" transform="matrix(6.123233995736766E-17,-1.0,1.0,6.123233995736766E-17,145.0,165.0)" style="font-size:1.0000000000000013px;">Estonia</text>
  <rect x="158.0" y="-6.0" width="2.6041666666666665" height="16.0" style="fill:cyan;opacity:0.3;"/>
  <text x="158.0" y="10.0" transform="matrix(6.123233995736766E-17,-1.0,1.0,6.123233995736766E-17,148.0,168.0)" style="font-size:1.0000000000000013px;">Czech Republic,</text>
  <rect x="161.0" y="-6.0" width="2.6041666666666665" height="16.0" style="fill:cyan;opacity:0.3;"/>
  <text x="161.0" y="10.0" transform="matrix(6.123233995736766E-17,-1.0,1.0,6.123233995736766E-17,151.0,171.0)" style="font-size:1.0000000000000013px;">Ireland</text>
  <rect x="163.0" y="-6.0" width="2.6041666666666665" height="16.0" style="fill:cyan;opacity:0.3;"/>
  <text x="163.0" y="10.0" transform="matrix(6.123233995736766E-17,-1.0,1.0,6.123233995736766E-17,153.0,173.0)" style="font-size:1.0000000000000013px;">Indonesia</text>
  <rect x="166.0" y="-4.0" width="2.6041666666666665" height="14.0" style="fill:cyan;opacity:0.3;"/>
  <text x="166.0" y="10.0" transform="matrix(6.123233995736766E-17,-1.0,1.0,6.123233995736766E-17,156.0,176.0)" style="font-size:1.0000000000000013px;">Greece</text>
  <rect x="168.0" y="-4.0" width="2.6041666666666665" height="14.0" style="fill:cyan;opacity:0.3;"/>
  <text x="168.0" y="10.0" transform="matrix(6.123233995736766E-17,-1.0,1.0,6.123233995736766E-17,158.0,178.0)" style="font-size:1.0000000000000013px;">Anguilla</text>
  <rect x="171.0" y="-4.0" width="2.6041666666666665" height="14.0" style="fill:cyan;opacity:0.3;"/>
  <text x="171.0" y="10.0" transform="matrix(6.123233995736766E-17,-1.0,1.0,6.123233995736766E-17,161.0,181.0)" style="font-size:1.0000000000000013px;">Austria</text>
  <rect x="174.0" y="-4.0" width="2.6041666666666665" height="14.0" style="fill:cyan;opacity:0.3;"/>
  <text x="174.0" y="10.0" transform="matrix(6.123233995736766E-17,-1.0,1.0,6.123233995736766E-17,164.0,184.0)" style="font-size:1.0000000000000013px;">Ecuador</text>
  <rect x="176.0" y="-1.0" width="2.6041666666666665" height="11.0" style="fill:cyan;opacity:0.3;"/>
  <text x="176.0" y="10.0" transform="matrix(6.123233995736766E-17,-1.0,1.0,6.123233995736766E-17,166.0,186.0)" style="font-size:1.0000000000000013px;">Argentina</text>
  <rect x="179.0" y="-1.0" width="2.6041666666666665" height="11.0" style="fill:cyan;opacity:0.3;"/>
  <text x="179.0" y="10.0" transform="matrix(6.123233995736766E-17,-1.0,1.0,6.123233995736766E-17,169.0,189.0)" style="font-size:1.0000000000000013px;">Thailand</text>
  <rect x="181.0" y="-1.0" width="2.6041666666666665" height="11.0" style="fill:cyan;opacity:0.3;"/>
  <text x="181.0" y="10.0" transform="matrix(6.123233995736766E-17,-1.0,1.0,6.123233995736766E-17,171.0,191.0)" style="font-size:1.0000000000000013px;">United Kingdom,</text>
  <rect x="184.0" y="-1.0" width="2.6041666666666665" height="11.0" style="fill:cyan;opacity:0.3;"/>
  <text x="184.0" y="10.0" transform="matrix(6.123233995736766E-17,-1.0,1.0,6.123233995736766E-17,174.0,194.0)" style="font-size:1.0000000000000013px;">Mauritania</text>
  <rect x="187.0" y="-1.0" width="2.6041666666666665" height="11.0" style="fill:cyan;opacity:0.3;"/>
  <text x="187.0" y="10.0" transform="matrix(6.123233995736766E-17,-1.0,1.0,6.123233995736766E-17,177.0,197.0)" style="font-size:1.0000000000000013px;">Burkina Faso</text>
  <rect x="189.0" y="-1.0" width="2.6041666666666665" height="11.0" style="fill:cyan;opacity:0.3;"/>
  <text x="189.0" y="10.0" transform="matrix(6.123233995736766E-17,-1.0,1.0,6.123233995736766E-17,179.0,199.0)" style="font-size:1.0000000000000013px;">Myanmar</text>
  <rect x="192.0" y="-1.0" width="2.6041666666666665" height="11.0" style="fill:cyan;opacity:0.3;"/>
  <text x="192.0" y="10.0" transform="matrix(6.123233995736766E-17,-1.0,1.0,6.123233995736766E-17,182.0,202.0)" style="font-size:1.0000000000000013px;">Hungary</text>
  <rect x="194.0" y="-1.0" width="2.6041666666666665" height="11.0" style="fill:cyan;opacity:0.3;"/>
  <text x="194.0" y="10.0" transform="matrix(6.123233995736766E-17,-1.0,1.0,6.123233995736766E-17,184.0,204.0)" style="font-size:1.0000000000000013px;">Singapore</text>
  <rect x="197.0" y="-1.0" width="2.6041666666666665" height="11.0" style="fill:cyan;opacity:0.3;"/>
  <text x="197.0" y="10.0" transform="matrix(6.123233995736766E-17,-1.0,1.0,6.123233995736766E-17,187.0,207.0)" style="font-size:1.0000000000000013px;">South Sudan,</text>
  <rect x="200.0" y="-1.0" width="2.6041666666666665" height="11.0" style="fill:cyan;opacity:0.3;"/>
  <text x="200.0" y="10.0" transform="matrix(6.123233995736766E-17,-1.0,1.0,6.123233995736766E-17,190.0,210.0)" style="font-size:1.0000000000000013px;">South Sudan.</text>
  <rect x="202.0" y="-1.0" width="2.6041666666666665" height="11.0" style="fill:cyan;opacity:0.3;"/>
  <text x="202.0" y="10.0" transform="matrix(6.123233995736766E-17,-1.0,1.0,6.123233995736766E-17,192.0,212.0)" style="font-size:1.0000000000000013px;">Burkina Faso,</text>
  <rect x="205.0" y="-1.0" width="2.6041666666666665" height="11.0" style="fill:cyan;opacity:0.3;"/>
  <text x="205.0" y="10.0" transform="matrix(6.123233995736766E-17,-1.0,1.0,6.123233995736766E-17,195.0,215.0)" style="font-size:1.0000000000000013px;">Serbia</text>
  <rect x="207.0" y="-1.0" width="2.6041666666666665" height="11.0" style="fill:cyan;opacity:0.3;"/>
  <text x="207.0" y="10.0" transform="matrix(6.123233995736766E-17,-1.0,1.0,6.123233995736766E-17,197.0,217.0)" style="font-size:1.0000000000000013px;">Bangladesh</text>
  <rect x="210.0" y="-1.0" width="2.6041666666666665" height="11.0" style="fill:cyan;opacity:0.3;"/>
  <text x="210.0" y="10.0" transform="matrix(6.123233995736766E-17,-1.0,1.0,6.123233995736766E-17,200.0,220.0)" style="font-size:1.0000000000000013px;">Suriname</text>
  <rect x="213.0" y="1.0" width="2.6041666666666665" height="9.0" style="fill:cyan;opacity:0.3;"/>
  <text x="213.0" y="10.0" transform="matrix(6.123233995736766E-17,-1.0,1.0,6.123233995736766E-17,203.0,223.0)" style="font-size:1.0000000000000013px;">Portugal</text>
  <rect x="215.0" y="1.0" width="2.6041666666666665" height="9.0" style="fill:cyan;opacity:0.3;"/>
  <text x="215.0" y="10.0" transform="matrix(6.123233995736766E-17,-1.0,1.0,6.123233995736766E-17,205.0,225.0)" style="font-size:1.0000000000000013px;">Sierra Leone,</text>
  <rect x="218.0" y="1.0" width="2.6041666666666665" height="9.0" style="fill:cyan;opacity:0.3;"/>
  <text x="218.0" y="10.0" transform="matrix(6.123233995736766E-17,-1.0,1.0,6.123233995736766E-17,208.0,228.0)" style="font-size:1.0000000000000013px;">French Guiana,</text>
  <rect x="220.0" y="1.0" width="2.6041666666666665" height="9.0" style="fill:cyan;opacity:0.3;"/>
  <text x="220.0" y="10.0" transform="matrix(6.123233995736766E-17,-1.0,1.0,6.123233995736766E-17,210.0,230.0)" style="font-size:1.0000000000000013px;">Georgia</text>
  <rect x="223.0" y="1.0" width="2.6041666666666665" height="9.0" style="fill:cyan;opacity:0.3;"/>
  <text x="223.0" y="10.0" transform="matrix(6.123233995736766E-17,-1.0,1.0,6.123233995736766E-17,213.0,233.0)" style="font-size:1.0000000000000013px;">Hong Kong</text>
  <rect x="226.0" y="1.0" width="2.6041666666666665" height="9.0" style="fill:cyan;opacity:0.3;"/>
  <text x="226.0" y="10.0" transform="matrix(6.123233995736766E-17,-1.0,1.0,6.123233995736766E-17,216.0,236.0)" style="font-size:1.0000000000000013px;">Bulgaria</text>
  <rect x="228.0" y="1.0" width="2.6041666666666665" height="9.0" style="fill:cyan;opacity:0.3;"/>
  <text x="228.0" y="10.0" transform="matrix(6.123233995736766E-17,-1.0,1.0,6.123233995736766E-17,218.0,238.0)" style="font-size:1.0000000000000013px;">South Africa,</text>
  <rect x="231.0" y="1.0" width="2.6041666666666665" height="9.0" style="fill:cyan;opacity:0.3;"/>
  <text x="231.0" y="10.0" transform="matrix(6.123233995736766E-17,-1.0,1.0,6.123233995736766E-17,221.0,241.0)" style="font-size:1.0000000000000013px;">Kenya</text>
  <rect x="233.0" y="1.0" width="2.6041666666666665" height="9.0" style="fill:cyan;opacity:0.3;"/>
  <text x="233.0" y="10.0" transform="matrix(6.123233995736766E-17,-1.0,1.0,6.123233995736766E-17,223.0,243.0)" style="font-size:1.0000000000000013px;">Slovenia</text>
  <rect x="236.0" y="1.0" width="2.6041666666666665" height="9.0" style="fill:cyan;opacity:0.3;"/>
  <text x="236.0" y="10.0" transform="matrix(6.123233995736766E-17,-1.0,1.0,6.123233995736766E-17,226.0,246.0)" style="font-size:1.0000000000000013px;">Sierra Leone</text>
  <rect x="239.0" y="1.0" width="2.6041666666666665" height="9.0" style="fill:cyan;opacity:0.3;"/>
  <text x="239.0" y="10.0" transform="matrix(6.123233995736766E-17,-1.0,1.0,6.123233995736766E-17,229.0,249.0)" style="font-size:1.0000000000000013px;">Philippines</text>
  <rect x="241.0" y="3.0" width="2.6041666666666665" height="7.0" style="fill:cyan;opacity:0.3;"/>
  <text x="241.0" y="10.0" transform="matrix(6.123233995736766E-17,-1.0,1.0,6.123233995736766E-17,231.0,251.0)" style="font-size:1.0000000000000013px;">United States;</text>
  <rect x="244.0" y="3.0" width="2.6041666666666665" height="7.0" style="fill:cyan;opacity:0.3;"/>
  <text x="244.0" y="10.0" transform="matrix(6.123233995736766E-17,-1.0,1.0,6.123233995736766E-17,234.0,254.0)" style="font-size:1.0000000000000013px;">Mali</text>
  <rect x="246.0" y="3.0" width="2.6041666666666665" height="7.0" style="fill:cyan;opacity:0.3;"/>
  <text x="246.0" y="10.0" transform="matrix(6.123233995736766E-17,-1.0,1.0,6.123233995736766E-17,236.0,256.0)" style="font-size:1.0000000000000013px;">Guatemala</text>
  <rect x="249.0" y="3.0" width="2.6041666666666665" height="7.0" style="fill:cyan;opacity:0.3;"/>
  <text x="249.0" y="10.0" transform="matrix(6.123233995736766E-17,-1.0,1.0,6.123233995736766E-17,238.99999999999997,259.0)" style="font-size:1.0000000000000013px;">Chile</text>
  <rect x="252.0" y="3.0" width="2.6041666666666665" height="7.0" style="fill:cyan;opacity:0.3;"/>
  <text x="252.0" y="10.0" transform="matrix(6.123233995736766E-17,-1.0,1.0,6.123233995736766E-17,241.99999999999997,262.0)" style="font-size:1.0000000000000013px;">Belize</text>
  <rect x="254.0" y="3.0" width="2.6041666666666665" height="7.0" style="fill:cyan;opacity:0.3;"/>
  <text x="254.0" y="10.0" transform="matrix(6.123233995736766E-17,-1.0,1.0,6.123233995736766E-17,243.99999999999997,264.0)" style="font-size:1.0000000000000013px;">Ghana</text>
  <rect x="257.0" y="3.0" width="2.6041666666666665" height="7.0" style="fill:cyan;opacity:0.3;"/>
  <text x="257.0" y="10.0" transform="matrix(6.123233995736766E-17,-1.0,1.0,6.123233995736766E-17,246.99999999999997,267.0)" style="font-size:1.0000000000000013px;">Belgium</text>
  <rect x="260.0" y="3.0" width="2.6041666666666665" height="7.0" style="fill:cyan;opacity:0.3;"/>
  <text x="260.0" y="10.0" transform="matrix(6.123233995736766E-17,-1.0,1.0,6.123233995736766E-17,249.99999999999997,270.0)" style="font-size:1.0000000000000013px;">Turkmenistan</text>
  <rect x="262.0" y="3.0" width="2.6041666666666665" height="7.0" style="fill:cyan;opacity:0.3;"/>
  <text x="262.0" y="10.0" transform="matrix(6.123233995736766E-17,-1.0,1.0,6.123233995736766E-17,251.99999999999997,272.0)" style="font-size:1.0000000000000013px;">Peru</text>
  <rect x="265.0" y="3.0" width="2.6041666666666665" height="7.0" style="fill:cyan;opacity:0.3;"/>
  <text x="265.0" y="10.0" transform="matrix(6.123233995736766E-17,-1.0,1.0,6.123233995736766E-17,254.99999999999997,275.0)" style="font-size:1.0000000000000013px;">Eritrea</text>
  <rect x="267.0" y="3.0" width="2.6041666666666665" height="7.0" style="fill:cyan;opacity:0.3;"/>
  <text x="267.0" y="10.0" transform="matrix(6.123233995736766E-17,-1.0,1.0,6.123233995736766E-17,257.0,277.0)" style="font-size:1.0000000000000013px;">Guinea</text>
  <rect x="270.0" y="3.0" width="2.6041666666666665" height="7.0" style="fill:cyan;opacity:0.3;"/>
  <text x="270.0" y="10.0" transform="matrix(6.123233995736766E-17,-1.0,1.0,6.123233995736766E-17,260.0,280.0)" style="font-size:1.0000000000000013px;">Chad</text>
  <rect x="273.0" y="3.0" width="2.6041666666666665" height="7.0" style="fill:cyan;opacity:0.3;"/>
  <text x="273.0" y="10.0" transform="matrix(6.123233995736766E-17,-1.0,1.0,6.123233995736766E-17,263.0,283.0)" style="font-size:1.0000000000000013px;">Poland</text>
  <rect x="275.0" y="3.0" width="2.6041666666666665" height="7.0" style="fill:cyan;opacity:0.3;"/>
  <text x="275.0" y="10.0" transform="matrix(6.123233995736766E-17,-1.0,1.0,6.123233995736766E-17,265.0,285.0)" style="font-size:1.0000000000000013px;">Uruguay</text>
  <rect x="278.0" y="3.0" width="2.6041666666666665" height="7.0" style="fill:cyan;opacity:0.3;"/>
  <text x="278.0" y="10.0" transform="matrix(6.123233995736766E-17,-1.0,1.0,6.123233995736766E-17,268.0,288.0)" style="font-size:1.0000000000000013px;">United Kingdom.</text>
  <rect x="280.0" y="3.0" width="2.6041666666666665" height="7.0" style="fill:cyan;opacity:0.3;"/>
  <text x="280.0" y="10.0" transform="matrix(6.123233995736766E-17,-1.0,1.0,6.123233995736766E-17,270.0,290.0)" style="font-size:1.0000000000000013px;">Czech Republic</text>
  <rect x="283.0" y="3.0" width="2.6041666666666665" height="7.0" style="fill:cyan;opacity:0.3;"/>
  <text x="283.0" y="10.0" transform="matrix(6.123233995736766E-17,-1.0,1.0,6.123233995736766E-17,273.0,293.0)" style="font-size:1.0000000000000013px;">Mozambique</text>
  <rect x="286.0" y="3.0" width="2.6041666666666665" height="7.0" style="fill:cyan;opacity:0.3;"/>
  <text x="286.0" y="10.0" transform="matrix(6.123233995736766E-17,-1.0,1.0,6.123233995736766E-17,276.0,296.0)" style="font-size:1.0000000000000013px;">Luxembourg</text>
  <rect x="288.0" y="3.0" width="2.6041666666666665" height="7.0" style="fill:cyan;opacity:0.3;"/>
  <text x="288.0" y="10.0" transform="matrix(6.123233995736766E-17,-1.0,1.0,6.123233995736766E-17,278.0,298.0)" style="font-size:1.0000000000000013px;">Western Sahara</text>
  <rect x="291.0" y="3.0" width="2.6041666666666665" height="7.0" style="fill:cyan;opacity:0.3;"/>
  <text x="291.0" y="10.0" transform="matrix(6.123233995736766E-17,-1.0,1.0,6.123233995736766E-17,281.0,301.0)" style="font-size:1.0000000000000013px;">Colombia</text>
  <rect x="293.0" y="3.0" width="2.6041666666666665" height="7.0" style="fill:cyan;opacity:0.3;"/>
  <text x="293.0" y="10.0" transform="matrix(6.123233995736766E-17,-1.0,1.0,6.123233995736766E-17,283.0,303.0)" style="font-size:1.0000000000000013px;">Burkina Faso.</text>
  <rect x="296.0" y="3.0" width="2.6041666666666665" height="7.0" style="fill:cyan;opacity:0.3;"/>
  <text x="296.0" y="10.0" transform="matrix(6.123233995736766E-17,-1.0,1.0,6.123233995736766E-17,286.0,306.0)" style="font-size:1.0000000000000013px;">Lithuania</text>
  <rect x="299.0" y="3.0" width="2.6041666666666665" height="7.0" style="fill:cyan;opacity:0.3;"/>
  <text x="299.0" y="10.0" transform="matrix(6.123233995736766E-17,-1.0,1.0,6.123233995736766E-17,289.0,309.0)" style="font-size:1.0000000000000013px;">Togo</text>
  <rect x="301.0" y="3.0" width="2.6041666666666665" height="7.0" style="fill:cyan;opacity:0.3;"/>
  <text x="301.0" y="10.0" transform="matrix(6.123233995736766E-17,-1.0,1.0,6.123233995736766E-17,291.0,311.0)" style="font-size:1.0000000000000013px;">Rwanda</text>
  <rect x="304.0" y="3.0" width="2.6041666666666665" height="7.0" style="fill:cyan;opacity:0.3;"/>
  <text x="304.0" y="10.0" transform="matrix(6.123233995736766E-17,-1.0,1.0,6.123233995736766E-17,294.0,314.0)" style="font-size:1.0000000000000013px;">Barbados</text>
  <rect x="306.0" y="3.0" width="2.6041666666666665" height="7.0" style="fill:cyan;opacity:0.3;"/>
  <text x="306.0" y="10.0" transform="matrix(6.123233995736766E-17,-1.0,1.0,6.123233995736766E-17,296.0,316.0)" style="font-size:1.0000000000000013px;">Zimbabwe</text>
  <rect x="309.0" y="6.0" width="2.6041666666666665" height="4.0" style="fill:cyan;opacity:0.3;"/>
  <text x="309.0" y="10.0" transform="matrix(6.123233995736766E-17,-1.0,1.0,6.123233995736766E-17,299.0,319.0)" style="font-size:1.0000000000000013px;">El Salvador,</text>
  <rect x="312.0" y="6.0" width="2.6041666666666665" height="4.0" style="fill:cyan;opacity:0.3;"/>
  <text x="312.0" y="10.0" transform="matrix(6.123233995736766E-17,-1.0,1.0,6.123233995736766E-17,302.0,322.0)" style="font-size:1.0000000000000013px;">Latvia</text>
  <rect x="314.0" y="6.0" width="2.6041666666666665" height="4.0" style="fill:cyan;opacity:0.3;"/>
  <text x="314.0" y="10.0" transform="matrix(6.123233995736766E-17,-1.0,1.0,6.123233995736766E-17,304.0,324.0)" style="font-size:1.0000000000000013px;">Montserrat</text>
  <rect x="317.0" y="6.0" width="2.6041666666666665" height="4.0" style="fill:cyan;opacity:0.3;"/>
  <text x="317.0" y="10.0" transform="matrix(6.123233995736766E-17,-1.0,1.0,6.123233995736766E-17,307.0,327.0)" style="font-size:1.0000000000000013px;">Panama</text>
  <rect x="319.0" y="6.0" width="2.6041666666666665" height="4.0" style="fill:cyan;opacity:0.3;"/>
  <text x="319.0" y="10.0" transform="matrix(6.123233995736766E-17,-1.0,1.0,6.123233995736766E-17,309.0,329.0)" style="font-size:1.0000000000000013px;">Guyana</text>
  <rect x="322.0" y="6.0" width="2.6041666666666665" height="4.0" style="fill:cyan;opacity:0.3;"/>
  <text x="322.0" y="10.0" transform="matrix(6.123233995736766E-17,-1.0,1.0,6.123233995736766E-17,312.0,332.0)" style="font-size:1.0000000000000013px;">Nepal</text>
  <rect x="325.0" y="6.0" width="2.6041666666666665" height="4.0" style="fill:cyan;opacity:0.3;"/>
  <text x="325.0" y="10.0" transform="matrix(6.123233995736766E-17,-1.0,1.0,6.123233995736766E-17,315.0,335.0)" style="font-size:1.0000000000000013px;">Guinea-Bissau</text>
  <rect x="327.0" y="6.0" width="2.6041666666666665" height="4.0" style="fill:cyan;opacity:0.3;"/>
  <text x="327.0" y="10.0" transform="matrix(6.123233995736766E-17,-1.0,1.0,6.123233995736766E-17,317.0,337.0)" style="font-size:1.0000000000000013px;">South Africa</text>
  <rect x="330.0" y="6.0" width="2.6041666666666665" height="4.0" style="fill:cyan;opacity:0.3;"/>
  <text x="330.0" y="10.0" transform="matrix(6.123233995736766E-17,-1.0,1.0,6.123233995736766E-17,320.0,340.0)" style="font-size:1.0000000000000013px;">Central African</text>
  <rect x="332.0" y="6.0" width="2.6041666666666665" height="4.0" style="fill:cyan;opacity:0.3;"/>
  <text x="332.0" y="10.0" transform="matrix(6.123233995736766E-17,-1.0,1.0,6.123233995736766E-17,322.0,342.0)" style="font-size:1.0000000000000013px;">Jamaica</text>
  <rect x="335.0" y="6.0" width="2.6041666666666665" height="4.0" style="fill:cyan;opacity:0.3;"/>
  <text x="335.0" y="10.0" transform="matrix(6.123233995736766E-17,-1.0,1.0,6.123233995736766E-17,325.0,345.0)" style="font-size:1.0000000000000013px;">Puerto Rico</text>
  <rect x="338.0" y="6.0" width="2.6041666666666665" height="4.0" style="fill:cyan;opacity:0.3;"/>
  <text x="338.0" y="10.0" transform="matrix(6.123233995736766E-17,-1.0,1.0,6.123233995736766E-17,328.0,348.0)" style="font-size:1.0000000000000013px;">Sao Tome and Pr</text>
  <rect x="340.0" y="6.0" width="2.6041666666666665" height="4.0" style="fill:cyan;opacity:0.3;"/>
  <text x="340.0" y="10.0" transform="matrix(6.123233995736766E-17,-1.0,1.0,6.123233995736766E-17,330.0,350.0)" style="font-size:1.0000000000000013px;">Madagascar</text>
  <rect x="343.0" y="6.0" width="2.6041666666666665" height="4.0" style="fill:cyan;opacity:0.3;"/>
  <text x="343.0" y="10.0" transform="matrix(6.123233995736766E-17,-1.0,1.0,6.123233995736766E-17,333.0,353.0)" style="font-size:1.0000000000000013px;">Costa Rica</text>
  <rect x="345.0" y="6.0" width="2.6041666666666665" height="4.0" style="fill:cyan;opacity:0.3;"/>
  <text x="345.0" y="10.0" transform="matrix(6.123233995736766E-17,-1.0,1.0,6.123233995736766E-17,335.0,355.0)" style="font-size:1.0000000000000013px;">Malawi</text>
  <rect x="348.0" y="6.0" width="2.6041666666666665" height="4.0" style="fill:cyan;opacity:0.3;"/>
  <text x="348.0" y="10.0" transform="matrix(6.123233995736766E-17,-1.0,1.0,6.123233995736766E-17,338.0,358.0)" style="font-size:1.0000000000000013px;">South Africa.</text>
  <rect x="351.0" y="6.0" width="2.6041666666666665" height="4.0" style="fill:cyan;opacity:0.3;"/>
  <text x="351.0" y="10.0" transform="matrix(6.123233995736766E-17,-1.0,1.0,6.123233995736766E-17,341.0,361.0)" style="font-size:1.0000000000000013px;">Croatia</text>
  <rect x="353.0" y="6.0" width="2.6041666666666665" height="4.0" style="fill:cyan;opacity:0.3;"/>
  <text x="353.0" y="10.0" transform="matrix(6.123233995736766E-17,-1.0,1.0,6.123233995736766E-17,343.0,363.0)" style="font-size:1.0000000000000013px;">Cuba</text>
  <rect x="356.0" y="6.0" width="2.6041666666666665" height="4.0" style="fill:cyan;opacity:0.3;"/>
  <text x="356.0" y="10.0" transform="matrix(6.123233995736766E-17,-1.0,1.0,6.123233995736766E-17,346.0,366.0)" style="font-size:1.0000000000000013px;">United Kingdom;</text>
  <rect x="358.0" y="6.0" width="2.6041666666666665" height="4.0" style="fill:cyan;opacity:0.3;"/>
  <text x="358.0" y="10.0" transform="matrix(6.123233995736766E-17,-1.0,1.0,6.123233995736766E-17,348.0,368.0)" style="font-size:1.0000000000000013px;">Malaysia</text>
  <rect x="361.0" y="6.0" width="2.6041666666666665" height="4.0" style="fill:cyan;opacity:0.3;"/>
  <text x="361.0" y="10.0" transform="matrix(6.123233995736766E-17,-1.0,1.0,6.123233995736766E-17,351.0,371.0)" style="font-size:1.0000000000000013px;">Dominican Repub</text>
  <rect x="364.0" y="6.0" width="2.6041666666666665" height="4.0" style="fill:cyan;opacity:0.3;"/>
  <text x="364.0" y="10.0" transform="matrix(6.123233995736766E-17,-1.0,1.0,6.123233995736766E-17,354.0,374.0)" style="font-size:1.0000000000000013px;">Jersey</text>
  <rect x="366.0" y="6.0" width="2.6041666666666665" height="4.0" style="fill:cyan;opacity:0.3;"/>
  <text x="366.0" y="10.0" transform="matrix(6.123233995736766E-17,-1.0,1.0,6.123233995736766E-17,356.0,376.0)" style="font-size:1.0000000000000013px;">Saudi Arabia;</text>
  <rect x="369.0" y="6.0" width="2.6041666666666665" height="4.0" style="fill:cyan;opacity:0.3;"/>
  <text x="369.0" y="10.0" transform="matrix(6.123233995736766E-17,-1.0,1.0,6.123233995736766E-17,359.0,379.0)" style="font-size:1.0000000000000013px;">Belarus</text>
  <rect x="371.0" y="6.0" width="2.6041666666666665" height="4.0" style="fill:cyan;opacity:0.3;"/>
  <text x="371.0" y="10.0" transform="matrix(6.123233995736766E-17,-1.0,1.0,6.123233995736766E-17,361.0,381.0)" style="font-size:1.0000000000000013px;">Senegal</text>
  <rect x="374.0" y="6.0" width="2.6041666666666665" height="4.0" style="fill:cyan;opacity:0.3;"/>
  <text x="374.0" y="10.0" transform="matrix(6.123233995736766E-17,-1.0,1.0,6.123233995736766E-17,364.0,384.0)" style="font-size:1.0000000000000013px;">Nauru</text>
  <rect x="377.0" y="6.0" width="2.6041666666666665" height="4.0" style="fill:cyan;opacity:0.3;"/>
  <text x="377.0" y="10.0" transform="matrix(6.123233995736766E-17,-1.0,1.0,6.123233995736766E-17,367.0,387.0)" style="font-size:1.0000000000000013px;">Haiti</text>
  <rect x="379.0" y="6.0" width="2.6041666666666665" height="4.0" style="fill:cyan;opacity:0.3;"/>
  <text x="379.0" y="10.0" transform="matrix(6.123233995736766E-17,-1.0,1.0,6.123233995736766E-17,369.0,389.0)" style="font-size:1.0000000000000013px;">French Guiana</text>
  <rect x="382.0" y="6.0" width="2.6041666666666665" height="4.0" style="fill:cyan;opacity:0.3;"/>
  <text x="382.0" y="10.0" transform="matrix(6.123233995736766E-17,-1.0,1.0,6.123233995736766E-17,372.0,392.0)" style="font-size:1.0000000000000013px;">Syrian Arab Rep</text>
  <rect x="385.0" y="6.0" width="2.6041666666666665" height="4.0" style="fill:cyan;opacity:0.3;"/>
  <text x="385.0" y="10.0" transform="matrix(6.123233995736766E-17,-1.0,1.0,6.123233995736766E-17,375.0,395.0)" style="font-size:1.0000000000000013px;">Costa Rica,</text>
  <rect x="387.0" y="6.0" width="2.6041666666666665" height="4.0" style="fill:cyan;opacity:0.3;"/>
  <text x="387.0" y="10.0" transform="matrix(6.123233995736766E-17,-1.0,1.0,6.123233995736766E-17,377.0,397.0)" style="font-size:1.0000000000000013px;">Gambia</text>
  <rect x="390.0" y="6.0" width="2.6041666666666665" height="4.0" style="fill:cyan;opacity:0.3;"/>
  <text x="390.0" y="10.0" transform="matrix(6.123233995736766E-17,-1.0,1.0,6.123233995736766E-17,380.0,400.0)" style="font-size:1.0000000000000013px;">Slovakia</text>
  <rect x="392.0" y="6.0" width="2.6041666666666665" height="4.0" style="fill:cyan;opacity:0.3;"/>
  <text x="392.0" y="10.0" transform="matrix(6.123233995736766E-17,-1.0,1.0,6.123233995736766E-17,382.0,402.0)" style="font-size:1.0000000000000013px;">Bosnia and Herz</text>
  <rect x="395.0" y="6.0" width="2.6041666666666665" height="4.0" style="fill:cyan;opacity:0.3;"/>
  <text x="395.0" y="10.0" transform="matrix(6.123233995736766E-17,-1.0,1.0,6.123233995736766E-17,385.0,405.0)" style="font-size:1.0000000000000013px;">Saint Lucia,</text>
  <rect x="398.0" y="6.0" width="2.6041666666666665" height="4.0" style="fill:cyan;opacity:0.3;"/>
  <text x="398.0" y="10.0" transform="matrix(6.123233995736766E-17,-1.0,1.0,6.123233995736766E-17,388.0,408.0)" style="font-size:1.0000000000000013px;">Bhutan</text>
  <rect x="400.0" y="6.0" width="2.6041666666666665" height="4.0" style="fill:cyan;opacity:0.3;"/>
  <text x="400.0" y="10.0" transform="matrix(6.123233995736766E-17,-1.0,1.0,6.123233995736766E-17,390.0,410.0)" style="font-size:1.0000000000000013px;">Romania</text>
  <rect x="403.0" y="8.0" width="2.6041666666666665" height="2.0" style="fill:cyan;opacity:0.3;"/>
  <text x="403.0" y="10.0" transform="matrix(6.123233995736766E-17,-1.0,1.0,6.123233995736766E-17,393.0,413.0)" style="font-size:1.0000000000000013px;">Benin</text>
  <rect x="405.0" y="8.0" width="2.6041666666666665" height="2.0" style="fill:cyan;opacity:0.3;"/>
  <text x="405.0" y="10.0" transform="matrix(6.123233995736766E-17,-1.0,1.0,6.123233995736766E-17,395.0,415.0)" style="font-size:1.0000000000000013px;">Papua New Guine</text>
  <rect x="408.0" y="8.0" width="2.6041666666666665" height="2.0" style="fill:cyan;opacity:0.3;"/>
  <text x="408.0" y="10.0" transform="matrix(6.123233995736766E-17,-1.0,1.0,6.123233995736766E-17,398.0,418.0)" style="font-size:1.0000000000000013px;">Cambodia</text>
  <rect x="411.0" y="8.0" width="2.6041666666666665" height="2.0" style="fill:cyan;opacity:0.3;"/>
  <text x="411.0" y="10.0" transform="matrix(6.123233995736766E-17,-1.0,1.0,6.123233995736766E-17,401.0,421.0)" style="font-size:1.0000000000000013px;">Kazakhstan</text>
  <rect x="413.0" y="8.0" width="2.6041666666666665" height="2.0" style="fill:cyan;opacity:0.3;"/>
  <text x="413.0" y="10.0" transform="matrix(6.123233995736766E-17,-1.0,1.0,6.123233995736766E-17,403.0,423.0)" style="font-size:1.0000000000000013px;">Paraguay</text>
  <rect x="416.0" y="8.0" width="2.6041666666666665" height="2.0" style="fill:cyan;opacity:0.3;"/>
  <text x="416.0" y="10.0" transform="matrix(6.123233995736766E-17,-1.0,1.0,6.123233995736766E-17,406.0,426.0)" style="font-size:1.0000000000000013px;">Mongolia</text>
  <rect x="418.0" y="8.0" width="2.6041666666666665" height="2.0" style="fill:cyan;opacity:0.3;"/>
  <text x="418.0" y="10.0" transform="matrix(6.123233995736766E-17,-1.0,1.0,6.123233995736766E-17,408.0,428.0)" style="font-size:1.0000000000000013px;">Sierra Leone.</text>
  <rect x="421.0" y="8.0" width="2.6041666666666665" height="2.0" style="fill:cyan;opacity:0.3;"/>
  <text x="421.0" y="10.0" transform="matrix(6.123233995736766E-17,-1.0,1.0,6.123233995736766E-17,411.0,431.0)" style="font-size:1.0000000000000013px;">French Guiana.</text>
  <rect x="424.0" y="8.0" width="2.6041666666666665" height="2.0" style="fill:cyan;opacity:0.3;"/>
  <text x="424.0" y="10.0" transform="matrix(6.123233995736766E-17,-1.0,1.0,6.123233995736766E-17,414.0,434.0)" style="font-size:1.0000000000000013px;">Ukraine</text>
  <rect x="426.0" y="8.0" width="2.6041666666666665" height="2.0" style="fill:cyan;opacity:0.3;"/>
  <text x="426.0" y="10.0" transform="matrix(6.123233995736766E-17,-1.0,1.0,6.123233995736766E-17,416.0,436.0)" style="font-size:1.0000000000000013px;">Hong Kong,</text>
  <rect x="429.0" y="8.0" width="2.6041666666666665" height="2.0" style="fill:cyan;opacity:0.3;"/>
  <text x="429.0" y="10.0" transform="matrix(6.123233995736766E-17,-1.0,1.0,6.123233995736766E-17,419.0,439.0)" style="font-size:1.0000000000000013px;">Zambia</text>
  <rect x="431.0" y="8.0" width="2.6041666666666665" height="2.0" style="fill:cyan;opacity:0.3;"/>
  <text x="431.0" y="10.0" transform="matrix(6.123233995736766E-17,-1.0,1.0,6.123233995736766E-17,421.0,441.0)" style="font-size:1.0000000000000013px;">Syrian Arab Rep</text>
  <rect x="434.0" y="8.0" width="2.6041666666666665" height="2.0" style="fill:cyan;opacity:0.3;"/>
  <text x="434.0" y="10.0" transform="matrix(6.123233995736766E-17,-1.0,1.0,6.123233995736766E-17,424.0,444.0)" style="font-size:1.0000000000000013px;">Hong Kong.</text>
  <rect x="437.0" y="8.0" width="2.6041666666666665" height="2.0" style="fill:cyan;opacity:0.3;"/>
  <text x="437.0" y="10.0" transform="matrix(6.123233995736766E-17,-1.0,1.0,6.123233995736766E-17,427.0,447.0)" style="font-size:1.0000000000000013px;">Comoros</text>
  <rect x="439.0" y="8.0" width="2.6041666666666665" height="2.0" style="fill:cyan;opacity:0.3;"/>
  <text x="439.0" y="10.0" transform="matrix(6.123233995736766E-17,-1.0,1.0,6.123233995736766E-17,429.0,449.0)" style="font-size:1.0000000000000013px;">Sri Lanka</text>
  <rect x="442.0" y="8.0" width="2.6041666666666665" height="2.0" style="fill:cyan;opacity:0.3;"/>
  <text x="442.0" y="10.0" transform="matrix(6.123233995736766E-17,-1.0,1.0,6.123233995736766E-17,432.0,452.0)" style="font-size:1.0000000000000013px;">Liberia</text>
  <rect x="444.0" y="8.0" width="2.6041666666666665" height="2.0" style="fill:cyan;opacity:0.3;"/>
  <text x="444.0" y="10.0" transform="matrix(6.123233995736766E-17,-1.0,1.0,6.123233995736766E-17,434.0,454.0)" style="font-size:1.0000000000000013px;">Azerbaijan</text>
  <rect x="447.0" y="8.0" width="2.6041666666666665" height="2.0" style="fill:cyan;opacity:0.3;"/>
  <text x="447.0" y="10.0" transform="matrix(6.123233995736766E-17,-1.0,1.0,6.123233995736766E-17,437.0,457.0)" style="font-size:1.0000000000000013px;">Saint Lucia</text>
  <rect x="450.0" y="8.0" width="2.6041666666666665" height="2.0" style="fill:cyan;opacity:0.3;"/>
  <text x="450.0" y="10.0" transform="matrix(6.123233995736766E-17,-1.0,1.0,6.123233995736766E-17,440.0,460.0)" style="font-size:1.0000000000000013px;">Swaziland</text>
  <rect x="452.0" y="8.0" width="2.6041666666666665" height="2.0" style="fill:cyan;opacity:0.3;"/>
  <text x="452.0" y="10.0" transform="matrix(6.123233995736766E-17,-1.0,1.0,6.123233995736766E-17,442.0,462.0)" style="font-size:1.0000000000000013px;">Palau</text>
  <rect x="455.0" y="8.0" width="2.6041666666666665" height="2.0" style="fill:cyan;opacity:0.3;"/>
  <text x="455.0" y="10.0" transform="matrix(6.123233995736766E-17,-1.0,1.0,6.123233995736766E-17,445.0,465.0)" style="font-size:1.0000000000000013px;">Cameroon</text>
  <rect x="457.0" y="8.0" width="2.6041666666666665" height="2.0" style="fill:cyan;opacity:0.3;"/>
  <text x="457.0" y="10.0" transform="matrix(6.123233995736766E-17,-1.0,1.0,6.123233995736766E-17,447.0,467.0)" style="font-size:1.0000000000000013px;">Puerto Rico.</text>
  <rect x="460.0" y="8.0" width="2.6041666666666665" height="2.0" style="fill:cyan;opacity:0.3;"/>
  <text x="460.0" y="10.0" transform="matrix(6.123233995736766E-17,-1.0,1.0,6.123233995736766E-17,450.0,470.0)" style="font-size:1.0000000000000013px;">American Samoa,</text>
  <rect x="463.0" y="8.0" width="2.6041666666666665" height="2.0" style="fill:cyan;opacity:0.3;"/>
  <text x="463.0" y="10.0" transform="matrix(6.123233995736766E-17,-1.0,1.0,6.123233995736766E-17,453.0,473.0)" style="font-size:1.0000000000000013px;">El Salvador</text>
  <rect x="465.0" y="8.0" width="2.6041666666666665" height="2.0" style="fill:cyan;opacity:0.3;"/>
  <text x="465.0" y="10.0" transform="matrix(6.123233995736766E-17,-1.0,1.0,6.123233995736766E-17,455.0,475.0)" style="font-size:1.0000000000000013px;">Puerto Rico,</text>
  <rect x="468.0" y="8.0" width="2.6041666666666665" height="2.0" style="fill:cyan;opacity:0.3;"/>
  <text x="468.0" y="10.0" transform="matrix(6.123233995736766E-17,-1.0,1.0,6.123233995736766E-17,458.0,478.0)" style="font-size:1.0000000000000013px;">Bosnia and Herz</text>
  <rect x="470.0" y="8.0" width="2.6041666666666665" height="2.0" style="fill:cyan;opacity:0.3;"/>
  <text x="470.0" y="10.0" transform="matrix(6.123233995736766E-17,-1.0,1.0,6.123233995736766E-17,460.0,480.0)" style="font-size:1.0000000000000013px;">Bosnia and Herz</text>
  <rect x="473.0" y="8.0" width="2.6041666666666665" height="2.0" style="fill:cyan;opacity:0.3;"/>
  <text x="473.0" y="10.0" transform="matrix(6.123233995736766E-17,-1.0,1.0,6.123233995736766E-17,463.0,483.0)" style="font-size:1.0000000000000013px;">Russian Federat</text>
  <rect x="476.0" y="8.0" width="2.6041666666666665" height="2.0" style="fill:cyan;opacity:0.3;"/>
  <text x="476.0" y="10.0" transform="matrix(6.123233995736766E-17,-1.0,1.0,6.123233995736766E-17,466.0,486.0)" style="font-size:1.0000000000000013px;">Albania</text>
  <rect x="478.0" y="8.0" width="2.6041666666666665" height="2.0" style="fill:cyan;opacity:0.3;"/>
  <text x="478.0" y="10.0" transform="matrix(6.123233995736766E-17,-1.0,1.0,6.123233995736766E-17,468.0,488.0)" style="font-size:1.0000000000000013px;">Honduras</text>
  <rect x="481.0" y="8.0" width="2.6041666666666665" height="2.0" style="fill:cyan;opacity:0.3;"/>
  <text x="481.0" y="10.0" transform="matrix(6.123233995736766E-17,-1.0,1.0,6.123233995736766E-17,470.99999999999994,491.0)" style="font-size:1.0000000000000013px;">Russian Federat</text>
  <rect x="483.0" y="8.0" width="2.6041666666666665" height="2.0" style="fill:cyan;opacity:0.3;"/>
  <text x="483.0" y="10.0" transform="matrix(6.123233995736766E-17,-1.0,1.0,6.123233995736766E-17,472.99999999999994,493.0)" style="font-size:1.0000000000000013px;">Burundi</text>
  <rect x="486.0" y="8.0" width="2.6041666666666665" height="2.0" style="fill:cyan;opacity:0.3;"/>
  <text x="486.0" y="10.0" transform="matrix(6.123233995736766E-17,-1.0,1.0,6.123233995736766E-17,475.99999999999994,496.0)" style="font-size:1.0000000000000013px;">Central African</text>
  <rect x="489.0" y="8.0" width="2.6041666666666665" height="2.0" style="fill:cyan;opacity:0.3;"/>
  <text x="489.0" y="10.0" transform="matrix(6.123233995736766E-17,-1.0,1.0,6.123233995736766E-17,478.99999999999994,499.0)" style="font-size:1.0000000000000013px;">Central African</text>
  <rect x="491.0" y="8.0" width="2.6041666666666665" height="2.0" style="fill:cyan;opacity:0.3;"/>
  <text x="491.0" y="10.0" transform="matrix(6.123233995736766E-17,-1.0,1.0,6.123233995736766E-17,480.99999999999994,501.0)" style="font-size:1.0000000000000013px;">Kyrgyzstan</text>
  <rect x="494.0" y="8.0" width="2.6041666666666665" height="2.0" style="fill:cyan;opacity:0.3;"/>
  <text x="494.0" y="10.0" transform="matrix(6.123233995736766E-17,-1.0,1.0,6.123233995736766E-17,483.99999999999994,504.0)" style="font-size:1.0000000000000013px;">Nicaragua</text>
  <rect x="496.0" y="8.0" width="2.6041666666666665" height="2.0" style="fill:cyan;opacity:0.3;"/>
  <text x="496.0" y="10.0" transform="matrix(6.123233995736766E-17,-1.0,1.0,6.123233995736766E-17,485.99999999999994,506.0)" style="font-size:1.0000000000000013px;">Equatorial Guin</text>
  <rect x="499.0" y="8.0" width="2.6041666666666665" height="2.0" style="fill:cyan;opacity:0.3;"/>
  <text x="499.0" y="10.0" transform="matrix(6.123233995736766E-17,-1.0,1.0,6.123233995736766E-17,488.99999999999994,509.0)" style="font-size:1.0000000000000013px;">Dominican Repub</text>
  <rect x="502.0" y="8.0" width="2.6041666666666665" height="2.0" style="fill:cyan;opacity:0.3;"/>
  <text x="502.0" y="10.0" transform="matrix(6.123233995736766E-17,-1.0,1.0,6.123233995736766E-17,491.99999999999994,512.0)" style="font-size:1.0000000000000013px;">Uganda</text>
  <rect x="504.0" y="8.0" width="2.6041666666666665" height="2.0" style="fill:cyan;opacity:0.3;"/>
  <text x="504.0" y="10.0" transform="matrix(6.123233995736766E-17,-1.0,1.0,6.123233995736766E-17,493.99999999999994,514.0)" style="font-size:1.0000000000000013px;">Montenegro</text>
  <rect x="507.0" y="8.0" width="2.6041666666666665" height="2.0" style="fill:cyan;opacity:0.3;"/>
  <text x="507.0" y="10.0" transform="matrix(6.123233995736766E-17,-1.0,1.0,6.123233995736766E-17,496.99999999999994,517.0)" style="font-size:1.0000000000000013px;">Greenland</text>
 </g>
</svg>
