<?xml version="1.0" encoding="UTF-8"?>
<svg height="20.0" width="519.8759689922481" xmlns="http://www.w3.org/2000/svg">
 <g>
  <rect x="10.0" y="-215.0" width="3.875968992248062" height="225.0" style="fill:cyan;opacity:0.3;"/>
  <text x="10.0" y="10.0" transform="matrix(6.123233995736766E-17,-1.0,1.0,6.123233995736766E-17,0.0,20.0)" style="font-size:1.0000000000000013px;">United States</text>
  <rect x="13.0" y="-215.0" width="3.875968992248062" height="225.0" style="fill:cyan;opacity:0.3;"/>
  <text x="13.0" y="10.0" transform="matrix(6.123233995736766E-17,-1.0,1.0,6.123233995736766E-17,3.0,23.0)" style="font-size:1.0000000000000013px;">Egypt</text>
  <rect x="17.0" y="-188.0" width="3.875968992248062" height="198.0" style="fill:cyan;opacity:0.3;"/>
  <text x="17.0" y="10.0" transform="matrix(6.123233995736766E-17,-1.0,1.0,6.123233995736766E-17,6.999999999999998,27.0)" style="font-size:1.0000000000000013px;">Qatar</text>
  <rect x="21.0" y="-177.0" width="3.875968992248062" height="187.0" style="fill:cyan;opacity:0.3;"/>
  <text x="21.0" y="10.0" transform="matrix(6.123233995736766E-17,-1.0,1.0,6.123233995736766E-17,10.999999999999998,31.0)" style="font-size:1.0000000000000013px;">Sudan</text>
  <rect x="25.0" y="-177.0" width="3.875968992248062" height="187.0" style="fill:cyan;opacity:0.3;"/>
  <text x="25.0" y="10.0" transform="matrix(6.123233995736766E-17,-1.0,1.0,6.123233995736766E-17,14.999999999999998,35.0)" style="font-size:1.0000000000000013px;">Lebanon</text>
  <rect x="29.0" y="-166.0" width="3.875968992248062" height="176.0" style="fill:cyan;opacity:0.3;"/>
  <text x="29.0" y="10.0" transform="matrix(6.123233995736766E-17,-1.0,1.0,6.123233995736766E-17,19.0,39.0)" style="font-size:1.0000000000000013px;">Iraq</text>
  <rect x="33.0" y="-166.0" width="3.875968992248062" height="176.0" style="fill:cyan;opacity:0.3;"/>
  <text x="33.0" y="10.0" transform="matrix(6.123233995736766E-17,-1.0,1.0,6.123233995736766E-17,23.0,43.0)" style="font-size:1.0000000000000013px;">Jordan</text>
  <rect x="37.0" y="-150.0" width="3.875968992248062" height="160.0" style="fill:cyan;opacity:0.3;"/>
  <text x="37.0" y="10.0" transform="matrix(6.123233995736766E-17,-1.0,1.0,6.123233995736766E-17,27.0,47.0)" style="font-size:1.0000000000000013px;">Yemen</text>
  <rect x="41.0" y="-140.0" width="3.875968992248062" height="150.0" style="fill:cyan;opacity:0.3;"/>
  <text x="41.0" y="10.0" transform="matrix(6.123233995736766E-17,-1.0,1.0,6.123233995736766E-17,31.0,51.0)" style="font-size:1.0000000000000013px;">Saudi Arabia,</text>
  <rect x="44.0" y="-134.0" width="3.875968992248062" height="144.0" style="fill:cyan;opacity:0.3;"/>
  <text x="44.0" y="10.0" transform="matrix(6.123233995736766E-17,-1.0,1.0,6.123233995736766E-17,34.0,54.0)" style="font-size:1.0000000000000013px;">Libya</text>
  <rect x="48.0" y="-134.0" width="3.875968992248062" height="144.0" style="fill:cyan;opacity:0.3;"/>
  <text x="48.0" y="10.0" transform="matrix(6.123233995736766E-17,-1.0,1.0,6.123233995736766E-17,38.0,58.0)" style="font-size:1.0000000000000013px;">Tunisia</text>
  <rect x="52.0" y="-134.0" width="3.875968992248062" height="144.0" style="fill:cyan;opacity:0.3;"/>
  <text x="52.0" y="10.0" transform="matrix(6.123233995736766E-17,-1.0,1.0,6.123233995736766E-17,42.0,62.0)" style="font-size:1.0000000000000013px;">Pakistan</text>
  <rect x="56.0" y="-129.0" width="3.875968992248062" height="139.0" style="fill:cyan;opacity:0.3;"/>
  <text x="56.0" y="10.0" transform="matrix(6.123233995736766E-17,-1.0,1.0,6.123233995736766E-17,46.0,66.0)" style="font-size:1.0000000000000013px;">Morocco</text>
  <rect x="60.0" y="-123.0" width="3.875968992248062" height="133.0" style="fill:cyan;opacity:0.3;"/>
  <text x="60.0" y="10.0" transform="matrix(6.123233995736766E-17,-1.0,1.0,6.123233995736766E-17,50.0,70.0)" style="font-size:1.0000000000000013px;">Saudi Arabia</text>
  <rect x="64.0" y="-123.0" width="3.875968992248062" height="133.0" style="fill:cyan;opacity:0.3;"/>
  <text x="64.0" y="10.0" transform="matrix(6.123233995736766E-17,-1.0,1.0,6.123233995736766E-17,54.0,74.0)" style="font-size:1.0000000000000013px;">China</text>
  <rect x="68.0" y="-118.0" width="3.875968992248062" height="128.0" style="fill:cyan;opacity:0.3;"/>
  <text x="68.0" y="10.0" transform="matrix(6.123233995736766E-17,-1.0,1.0,6.123233995736766E-17,58.0,78.0)" style="font-size:1.0000000000000013px;">Kuwait</text>
  <rect x="72.0" y="-102.0" width="3.875968992248062" height="112.0" style="fill:cyan;opacity:0.3;"/>
  <text x="72.0" y="10.0" transform="matrix(6.123233995736766E-17,-1.0,1.0,6.123233995736766E-17,62.0,82.0)" style="font-size:1.0000000000000013px;">Mexico</text>
  <rect x="75.0" y="-97.0" width="3.875968992248062" height="107.0" style="fill:cyan;opacity:0.3;"/>
  <text x="75.0" y="10.0" transform="matrix(6.123233995736766E-17,-1.0,1.0,6.123233995736766E-17,65.0,85.0)" style="font-size:1.0000000000000013px;">Afghanistan</text>
  <rect x="79.0" y="-86.0" width="3.875968992248062" height="96.0" style="fill:cyan;opacity:0.3;"/>
  <text x="79.0" y="10.0" transform="matrix(6.123233995736766E-17,-1.0,1.0,6.123233995736766E-17,69.0,89.0)" style="font-size:1.0000000000000013px;">Spain</text>
  <rect x="83.0" y="-81.0" width="3.875968992248062" height="91.0" style="fill:cyan;opacity:0.3;"/>
  <text x="83.0" y="10.0" transform="matrix(6.123233995736766E-17,-1.0,1.0,6.123233995736766E-17,73.0,93.0)" style="font-size:1.0000000000000013px;">United States,</text>
  <rect x="87.0" y="-81.0" width="3.875968992248062" height="91.0" style="fill:cyan;opacity:0.3;"/>
  <text x="87.0" y="10.0" transform="matrix(6.123233995736766E-17,-1.0,1.0,6.123233995736766E-17,77.0,97.0)" style="font-size:1.0000000000000013px;">Oman</text>
  <rect x="91.0" y="-81.0" width="3.875968992248062" height="91.0" style="fill:cyan;opacity:0.3;"/>
  <text x="91.0" y="10.0" transform="matrix(6.123233995736766E-17,-1.0,1.0,6.123233995736766E-17,81.0,101.0)" style="font-size:1.0000000000000013px;">Algeria</text>
  <rect x="95.0" y="-75.0" width="3.875968992248062" height="85.0" style="fill:cyan;opacity:0.3;"/>
  <text x="95.0" y="10.0" transform="matrix(6.123233995736766E-17,-1.0,1.0,6.123233995736766E-17,85.0,105.0)" style="font-size:1.0000000000000013px;">Bahrain</text>
  <rect x="99.0" y="-75.0" width="3.875968992248062" height="85.0" style="fill:cyan;opacity:0.3;"/>
  <text x="99.0" y="10.0" transform="matrix(6.123233995736766E-17,-1.0,1.0,6.123233995736766E-17,89.0,109.0)" style="font-size:1.0000000000000013px;">Turkey</text>
  <rect x="103.0" y="-75.0" width="3.875968992248062" height="85.0" style="fill:cyan;opacity:0.3;"/>
  <text x="103.0" y="10.0" transform="matrix(6.123233995736766E-17,-1.0,1.0,6.123233995736766E-17,93.0,113.0)" style="font-size:1.0000000000000013px;">United Arab Emi</text>
  <rect x="106.0" y="-65.0" width="3.875968992248062" height="75.0" style="fill:cyan;opacity:0.3;"/>
  <text x="106.0" y="10.0" transform="matrix(6.123233995736766E-17,-1.0,1.0,6.123233995736766E-17,96.0,116.0)" style="font-size:1.0000000000000013px;">Germany</text>
  <rect x="110.0" y="-65.0" width="3.875968992248062" height="75.0" style="fill:cyan;opacity:0.3;"/>
  <text x="110.0" y="10.0" transform="matrix(6.123233995736766E-17,-1.0,1.0,6.123233995736766E-17,100.0,120.0)" style="font-size:1.0000000000000013px;">Djibouti</text>
  <rect x="114.0" y="-54.0" width="3.875968992248062" height="64.0" style="fill:cyan;opacity:0.3;"/>
  <text x="114.0" y="10.0" transform="matrix(6.123233995736766E-17,-1.0,1.0,6.123233995736766E-17,104.0,124.0)" style="font-size:1.0000000000000013px;">Japan</text>
  <rect x="118.0" y="-48.0" width="3.875968992248062" height="58.0" style="fill:cyan;opacity:0.3;"/>
  <text x="118.0" y="10.0" transform="matrix(6.123233995736766E-17,-1.0,1.0,6.123233995736766E-17,108.0,128.0)" style="font-size:1.0000000000000013px;">Somalia</text>
  <rect x="122.0" y="-48.0" width="3.875968992248062" height="58.0" style="fill:cyan;opacity:0.3;"/>
  <text x="122.0" y="10.0" transform="matrix(6.123233995736766E-17,-1.0,1.0,6.123233995736766E-17,112.0,132.0)" style="font-size:1.0000000000000013px;">Australia</text>
  <rect x="126.0" y="-48.0" width="3.875968992248062" height="58.0" style="fill:cyan;opacity:0.3;"/>
  <text x="126.0" y="10.0" transform="matrix(6.123233995736766E-17,-1.0,1.0,6.123233995736766E-17,116.0,136.0)" style="font-size:1.0000000000000013px;">South Sudan</text>
  <rect x="130.0" y="-43.0" width="3.875968992248062" height="53.0" style="fill:cyan;opacity:0.3;"/>
  <text x="130.0" y="10.0" transform="matrix(6.123233995736766E-17,-1.0,1.0,6.123233995736766E-17,120.0,140.0)" style="font-size:1.0000000000000013px;">France</text>
  <rect x="134.0" y="-38.0" width="3.875968992248062" height="48.0" style="fill:cyan;opacity:0.3;"/>
  <text x="134.0" y="10.0" transform="matrix(6.123233995736766E-17,-1.0,1.0,6.123233995736766E-17,123.99999999999999,144.0)" style="font-size:1.0000000000000013px;">United States.</text>
  <rect x="137.0" y="-38.0" width="3.875968992248062" height="48.0" style="fill:cyan;opacity:0.3;"/>
  <text x="137.0" y="10.0" transform="matrix(6.123233995736766E-17,-1.0,1.0,6.123233995736766E-17,126.99999999999999,147.0)" style="font-size:1.0000000000000013px;">Malta</text>
  <rect x="141.0" y="-38.0" width="3.875968992248062" height="48.0" style="fill:cyan;opacity:0.3;"/>
  <text x="141.0" y="10.0" transform="matrix(6.123233995736766E-17,-1.0,1.0,6.123233995736766E-17,131.0,151.0)" style="font-size:1.0000000000000013px;">Denmark</text>
  <rect x="145.0" y="-32.0" width="3.875968992248062" height="42.0" style="fill:cyan;opacity:0.3;"/>
  <text x="145.0" y="10.0" transform="matrix(6.123233995736766E-17,-1.0,1.0,6.123233995736766E-17,135.0,155.0)" style="font-size:1.0000000000000013px;">Sweden</text>
  <rect x="149.0" y="-32.0" width="3.875968992248062" height="42.0" style="fill:cyan;opacity:0.3;"/>
  <text x="149.0" y="10.0" transform="matrix(6.123233995736766E-17,-1.0,1.0,6.123233995736766E-17,139.0,159.0)" style="font-size:1.0000000000000013px;">United Arab Emi</text>
  <rect x="153.0" y="-32.0" width="3.875968992248062" height="42.0" style="fill:cyan;opacity:0.3;"/>
  <text x="153.0" y="10.0" transform="matrix(6.123233995736766E-17,-1.0,1.0,6.123233995736766E-17,143.0,163.0)" style="font-size:1.0000000000000013px;">Netherlands</text>
  <rect x="157.0" y="-27.0" width="3.875968992248062" height="37.0" style="fill:cyan;opacity:0.3;"/>
  <text x="157.0" y="10.0" transform="matrix(6.123233995736766E-17,-1.0,1.0,6.123233995736766E-17,147.0,167.0)" style="font-size:1.0000000000000013px;">Canada</text>
  <rect x="161.0" y="-27.0" width="3.875968992248062" height="37.0" style="fill:cyan;opacity:0.3;"/>
  <text x="161.0" y="10.0" transform="matrix(6.123233995736766E-17,-1.0,1.0,6.123233995736766E-17,151.0,171.0)" style="font-size:1.0000000000000013px;">United Kingdom</text>
  <rect x="165.0" y="-27.0" width="3.875968992248062" height="37.0" style="fill:cyan;opacity:0.3;"/>
  <text x="165.0" y="10.0" transform="matrix(6.123233995736766E-17,-1.0,1.0,6.123233995736766E-17,155.0,175.0)" style="font-size:1.0000000000000013px;">Israel</text>
  <rect x="168.0" y="-22.0" width="3.875968992248062" height="32.0" style="fill:cyan;opacity:0.3;"/>
  <text x="168.0" y="10.0" transform="matrix(6.123233995736766E-17,-1.0,1.0,6.123233995736766E-17,158.0,178.0)" style="font-size:1.0000000000000013px;">Brazil</text>
  <rect x="172.0" y="-22.0" width="3.875968992248062" height="32.0" style="fill:cyan;opacity:0.3;"/>
  <text x="172.0" y="10.0" transform="matrix(6.123233995736766E-17,-1.0,1.0,6.123233995736766E-17,162.0,182.0)" style="font-size:1.0000000000000013px;">Saudi Arabia.</text>
  <rect x="176.0" y="-22.0" width="3.875968992248062" height="32.0" style="fill:cyan;opacity:0.3;"/>
  <text x="176.0" y="10.0" transform="matrix(6.123233995736766E-17,-1.0,1.0,6.123233995736766E-17,166.0,186.0)" style="font-size:1.0000000000000013px;">Czech Republic,</text>
  <rect x="180.0" y="-22.0" width="3.875968992248062" height="32.0" style="fill:cyan;opacity:0.3;"/>
  <text x="180.0" y="10.0" transform="matrix(6.123233995736766E-17,-1.0,1.0,6.123233995736766E-17,170.0,190.0)" style="font-size:1.0000000000000013px;">Niger</text>
  <rect x="184.0" y="-16.0" width="3.875968992248062" height="26.0" style="fill:cyan;opacity:0.3;"/>
  <text x="184.0" y="10.0" transform="matrix(6.123233995736766E-17,-1.0,1.0,6.123233995736766E-17,174.0,194.0)" style="font-size:1.0000000000000013px;">Congo</text>
  <rect x="188.0" y="-16.0" width="3.875968992248062" height="26.0" style="fill:cyan;opacity:0.3;"/>
  <text x="188.0" y="10.0" transform="matrix(6.123233995736766E-17,-1.0,1.0,6.123233995736766E-17,178.0,198.0)" style="font-size:1.0000000000000013px;">India</text>
  <rect x="192.0" y="-16.0" width="3.875968992248062" height="26.0" style="fill:cyan;opacity:0.3;"/>
  <text x="192.0" y="10.0" transform="matrix(6.123233995736766E-17,-1.0,1.0,6.123233995736766E-17,182.0,202.0)" style="font-size:1.0000000000000013px;">Nigeria</text>
  <rect x="196.0" y="-16.0" width="3.875968992248062" height="26.0" style="fill:cyan;opacity:0.3;"/>
  <text x="196.0" y="10.0" transform="matrix(6.123233995736766E-17,-1.0,1.0,6.123233995736766E-17,186.0,206.0)" style="font-size:1.0000000000000013px;">Switzerland</text>
  <rect x="199.0" y="-16.0" width="3.875968992248062" height="26.0" style="fill:cyan;opacity:0.3;"/>
  <text x="199.0" y="10.0" transform="matrix(6.123233995736766E-17,-1.0,1.0,6.123233995736766E-17,189.0,209.0)" style="font-size:1.0000000000000013px;">Hungary</text>
  <rect x="203.0" y="-16.0" width="3.875968992248062" height="26.0" style="fill:cyan;opacity:0.3;"/>
  <text x="203.0" y="10.0" transform="matrix(6.123233995736766E-17,-1.0,1.0,6.123233995736766E-17,193.0,213.0)" style="font-size:1.0000000000000013px;">United Arab Emi</text>
  <rect x="207.0" y="-16.0" width="3.875968992248062" height="26.0" style="fill:cyan;opacity:0.3;"/>
  <text x="207.0" y="10.0" transform="matrix(6.123233995736766E-17,-1.0,1.0,6.123233995736766E-17,197.0,217.0)" style="font-size:1.0000000000000013px;">Italy</text>
  <rect x="211.0" y="-16.0" width="3.875968992248062" height="26.0" style="fill:cyan;opacity:0.3;"/>
  <text x="211.0" y="10.0" transform="matrix(6.123233995736766E-17,-1.0,1.0,6.123233995736766E-17,201.0,221.0)" style="font-size:1.0000000000000013px;">South Sudan,</text>
  <rect x="215.0" y="-16.0" width="3.875968992248062" height="26.0" style="fill:cyan;opacity:0.3;"/>
  <text x="215.0" y="10.0" transform="matrix(6.123233995736766E-17,-1.0,1.0,6.123233995736766E-17,205.0,225.0)" style="font-size:1.0000000000000013px;">South Sudan.</text>
  <rect x="219.0" y="-16.0" width="3.875968992248062" height="26.0" style="fill:cyan;opacity:0.3;"/>
  <text x="219.0" y="10.0" transform="matrix(6.123233995736766E-17,-1.0,1.0,6.123233995736766E-17,209.0,229.0)" style="font-size:1.0000000000000013px;">Norway</text>
  <rect x="223.0" y="-11.0" width="3.875968992248062" height="21.0" style="fill:cyan;opacity:0.3;"/>
  <text x="223.0" y="10.0" transform="matrix(6.123233995736766E-17,-1.0,1.0,6.123233995736766E-17,213.0,233.0)" style="font-size:1.0000000000000013px;">Bulgaria</text>
  <rect x="227.0" y="-11.0" width="3.875968992248062" height="21.0" style="fill:cyan;opacity:0.3;"/>
  <text x="227.0" y="10.0" transform="matrix(6.123233995736766E-17,-1.0,1.0,6.123233995736766E-17,217.0,237.0)" style="font-size:1.0000000000000013px;">South Africa,</text>
  <rect x="230.0" y="-11.0" width="3.875968992248062" height="21.0" style="fill:cyan;opacity:0.3;"/>
  <text x="230.0" y="10.0" transform="matrix(6.123233995736766E-17,-1.0,1.0,6.123233995736766E-17,220.0,240.0)" style="font-size:1.0000000000000013px;">Syrian Arab Rep</text>
  <rect x="234.0" y="-11.0" width="3.875968992248062" height="21.0" style="fill:cyan;opacity:0.3;"/>
  <text x="234.0" y="10.0" transform="matrix(6.123233995736766E-17,-1.0,1.0,6.123233995736766E-17,224.0,244.0)" style="font-size:1.0000000000000013px;">Austria</text>
  <rect x="238.0" y="-11.0" width="3.875968992248062" height="21.0" style="fill:cyan;opacity:0.3;"/>
  <text x="238.0" y="10.0" transform="matrix(6.123233995736766E-17,-1.0,1.0,6.123233995736766E-17,228.0,248.0)" style="font-size:1.0000000000000013px;">New Zealand</text>
  <rect x="242.0" y="-11.0" width="3.875968992248062" height="21.0" style="fill:cyan;opacity:0.3;"/>
  <text x="242.0" y="10.0" transform="matrix(6.123233995736766E-17,-1.0,1.0,6.123233995736766E-17,232.0,252.0)" style="font-size:1.0000000000000013px;">Ireland</text>
  <rect x="246.0" y="-6.0" width="3.875968992248062" height="16.0" style="fill:cyan;opacity:0.3;"/>
  <text x="246.0" y="10.0" transform="matrix(6.123233995736766E-17,-1.0,1.0,6.123233995736766E-17,236.0,256.0)" style="font-size:1.0000000000000013px;">Portugal</text>
  <rect x="250.0" y="-6.0" width="3.875968992248062" height="16.0" style="fill:cyan;opacity:0.3;"/>
  <text x="250.0" y="10.0" transform="matrix(6.123233995736766E-17,-1.0,1.0,6.123233995736766E-17,239.99999999999997,260.0)" style="font-size:1.0000000000000013px;">Greece</text>
  <rect x="254.0" y="-6.0" width="3.875968992248062" height="16.0" style="fill:cyan;opacity:0.3;"/>
  <text x="254.0" y="10.0" transform="matrix(6.123233995736766E-17,-1.0,1.0,6.123233995736766E-17,243.99999999999997,264.0)" style="font-size:1.0000000000000013px;">Chile</text>
  <rect x="258.0" y="-6.0" width="3.875968992248062" height="16.0" style="fill:cyan;opacity:0.3;"/>
  <text x="258.0" y="10.0" transform="matrix(6.123233995736766E-17,-1.0,1.0,6.123233995736766E-17,247.99999999999997,268.0)" style="font-size:1.0000000000000013px;">Belgium</text>
  <rect x="261.0" y="-6.0" width="3.875968992248062" height="16.0" style="fill:cyan;opacity:0.3;"/>
  <text x="261.0" y="10.0" transform="matrix(6.123233995736766E-17,-1.0,1.0,6.123233995736766E-17,250.99999999999997,271.0)" style="font-size:1.0000000000000013px;">Finland</text>
  <rect x="265.0" y="-6.0" width="3.875968992248062" height="16.0" style="fill:cyan;opacity:0.3;"/>
  <text x="265.0" y="10.0" transform="matrix(6.123233995736766E-17,-1.0,1.0,6.123233995736766E-17,254.99999999999997,275.0)" style="font-size:1.0000000000000013px;">Peru</text>
  <rect x="269.0" y="-6.0" width="3.875968992248062" height="16.0" style="fill:cyan;opacity:0.3;"/>
  <text x="269.0" y="10.0" transform="matrix(6.123233995736766E-17,-1.0,1.0,6.123233995736766E-17,259.0,279.0)" style="font-size:1.0000000000000013px;">Kenya</text>
  <rect x="273.0" y="-6.0" width="3.875968992248062" height="16.0" style="fill:cyan;opacity:0.3;"/>
  <text x="273.0" y="10.0" transform="matrix(6.123233995736766E-17,-1.0,1.0,6.123233995736766E-17,263.0,283.0)" style="font-size:1.0000000000000013px;">Czech Republic</text>
  <rect x="277.0" y="-6.0" width="3.875968992248062" height="16.0" style="fill:cyan;opacity:0.3;"/>
  <text x="277.0" y="10.0" transform="matrix(6.123233995736766E-17,-1.0,1.0,6.123233995736766E-17,267.0,287.0)" style="font-size:1.0000000000000013px;">Luxembourg</text>
  <rect x="281.0" y="-6.0" width="3.875968992248062" height="16.0" style="fill:cyan;opacity:0.3;"/>
  <text x="281.0" y="10.0" transform="matrix(6.123233995736766E-17,-1.0,1.0,6.123233995736766E-17,271.0,291.0)" style="font-size:1.0000000000000013px;">Slovenia</text>
  <rect x="285.0" y="-6.0" width="3.875968992248062" height="16.0" style="fill:cyan;opacity:0.3;"/>
  <text x="285.0" y="10.0" transform="matrix(6.123233995736766E-17,-1.0,1.0,6.123233995736766E-17,275.0,295.0)" style="font-size:1.0000000000000013px;">Western Sahara</text>
  <rect x="289.0" y="-6.0" width="3.875968992248062" height="16.0" style="fill:cyan;opacity:0.3;"/>
  <text x="289.0" y="10.0" transform="matrix(6.123233995736766E-17,-1.0,1.0,6.123233995736766E-17,279.0,299.0)" style="font-size:1.0000000000000013px;">Colombia</text>
  <rect x="292.0" y="-6.0" width="3.875968992248062" height="16.0" style="fill:cyan;opacity:0.3;"/>
  <text x="292.0" y="10.0" transform="matrix(6.123233995736766E-17,-1.0,1.0,6.123233995736766E-17,282.0,302.0)" style="font-size:1.0000000000000013px;">Ethiopia</text>
  <rect x="296.0" y="-6.0" width="3.875968992248062" height="16.0" style="fill:cyan;opacity:0.3;"/>
  <text x="296.0" y="10.0" transform="matrix(6.123233995736766E-17,-1.0,1.0,6.123233995736766E-17,286.0,306.0)" style="font-size:1.0000000000000013px;">Singapore</text>
  <rect x="300.0" y="0.0" width="3.875968992248062" height="10.0" style="fill:cyan;opacity:0.3;"/>
  <text x="300.0" y="10.0" transform="matrix(6.123233995736766E-17,-1.0,1.0,6.123233995736766E-17,290.0,310.0)" style="font-size:1.0000000000000013px;">Latvia</text>
  <rect x="304.0" y="0.0" width="3.875968992248062" height="10.0" style="fill:cyan;opacity:0.3;"/>
  <text x="304.0" y="10.0" transform="matrix(6.123233995736766E-17,-1.0,1.0,6.123233995736766E-17,294.0,314.0)" style="font-size:1.0000000000000013px;">Montserrat</text>
  <rect x="308.0" y="0.0" width="3.875968992248062" height="10.0" style="fill:cyan;opacity:0.3;"/>
  <text x="308.0" y="10.0" transform="matrix(6.123233995736766E-17,-1.0,1.0,6.123233995736766E-17,298.0,318.0)" style="font-size:1.0000000000000013px;">Guatemala</text>
  <rect x="312.0" y="0.0" width="3.875968992248062" height="10.0" style="fill:cyan;opacity:0.3;"/>
  <text x="312.0" y="10.0" transform="matrix(6.123233995736766E-17,-1.0,1.0,6.123233995736766E-17,302.0,322.0)" style="font-size:1.0000000000000013px;">Sierra Leone,</text>
  <rect x="316.0" y="0.0" width="3.875968992248062" height="10.0" style="fill:cyan;opacity:0.3;"/>
  <text x="316.0" y="10.0" transform="matrix(6.123233995736766E-17,-1.0,1.0,6.123233995736766E-17,306.0,326.0)" style="font-size:1.0000000000000013px;">Eritrea</text>
  <rect x="320.0" y="0.0" width="3.875968992248062" height="10.0" style="fill:cyan;opacity:0.3;"/>
  <text x="320.0" y="10.0" transform="matrix(6.123233995736766E-17,-1.0,1.0,6.123233995736766E-17,310.0,330.0)" style="font-size:1.0000000000000013px;">Fiji</text>
  <rect x="323.0" y="0.0" width="3.875968992248062" height="10.0" style="fill:cyan;opacity:0.3;"/>
  <text x="323.0" y="10.0" transform="matrix(6.123233995736766E-17,-1.0,1.0,6.123233995736766E-17,313.0,333.0)" style="font-size:1.0000000000000013px;">Thailand</text>
  <rect x="327.0" y="0.0" width="3.875968992248062" height="10.0" style="fill:cyan;opacity:0.3;"/>
  <text x="327.0" y="10.0" transform="matrix(6.123233995736766E-17,-1.0,1.0,6.123233995736766E-17,317.0,337.0)" style="font-size:1.0000000000000013px;">Poland</text>
  <rect x="331.0" y="0.0" width="3.875968992248062" height="10.0" style="fill:cyan;opacity:0.3;"/>
  <text x="331.0" y="10.0" transform="matrix(6.123233995736766E-17,-1.0,1.0,6.123233995736766E-17,321.0,341.0)" style="font-size:1.0000000000000013px;">South Africa.</text>
  <rect x="335.0" y="0.0" width="3.875968992248062" height="10.0" style="fill:cyan;opacity:0.3;"/>
  <text x="335.0" y="10.0" transform="matrix(6.123233995736766E-17,-1.0,1.0,6.123233995736766E-17,325.0,345.0)" style="font-size:1.0000000000000013px;">Croatia</text>
  <rect x="339.0" y="0.0" width="3.875968992248062" height="10.0" style="fill:cyan;opacity:0.3;"/>
  <text x="339.0" y="10.0" transform="matrix(6.123233995736766E-17,-1.0,1.0,6.123233995736766E-17,329.0,349.0)" style="font-size:1.0000000000000013px;">United Kingdom.</text>
  <rect x="343.0" y="0.0" width="3.875968992248062" height="10.0" style="fill:cyan;opacity:0.3;"/>
  <text x="343.0" y="10.0" transform="matrix(6.123233995736766E-17,-1.0,1.0,6.123233995736766E-17,333.0,353.0)" style="font-size:1.0000000000000013px;">Estonia</text>
  <rect x="347.0" y="0.0" width="3.875968992248062" height="10.0" style="fill:cyan;opacity:0.3;"/>
  <text x="347.0" y="10.0" transform="matrix(6.123233995736766E-17,-1.0,1.0,6.123233995736766E-17,337.0,357.0)" style="font-size:1.0000000000000013px;">Saudi Arabia;</text>
  <rect x="351.0" y="0.0" width="3.875968992248062" height="10.0" style="fill:cyan;opacity:0.3;"/>
  <text x="351.0" y="10.0" transform="matrix(6.123233995736766E-17,-1.0,1.0,6.123233995736766E-17,341.0,361.0)" style="font-size:1.0000000000000013px;">Haiti</text>
  <rect x="354.0" y="0.0" width="3.875968992248062" height="10.0" style="fill:cyan;opacity:0.3;"/>
  <text x="354.0" y="10.0" transform="matrix(6.123233995736766E-17,-1.0,1.0,6.123233995736766E-17,344.0,364.0)" style="font-size:1.0000000000000013px;">Sierra Leone</text>
  <rect x="358.0" y="0.0" width="3.875968992248062" height="10.0" style="fill:cyan;opacity:0.3;"/>
  <text x="358.0" y="10.0" transform="matrix(6.123233995736766E-17,-1.0,1.0,6.123233995736766E-17,348.0,368.0)" style="font-size:1.0000000000000013px;">Burkina Faso,</text>
  <rect x="362.0" y="0.0" width="3.875968992248062" height="10.0" style="fill:cyan;opacity:0.3;"/>
  <text x="362.0" y="10.0" transform="matrix(6.123233995736766E-17,-1.0,1.0,6.123233995736766E-17,352.0,372.0)" style="font-size:1.0000000000000013px;">Slovakia</text>
  <rect x="366.0" y="0.0" width="3.875968992248062" height="10.0" style="fill:cyan;opacity:0.3;"/>
  <text x="366.0" y="10.0" transform="matrix(6.123233995736766E-17,-1.0,1.0,6.123233995736766E-17,356.0,376.0)" style="font-size:1.0000000000000013px;">Lithuania</text>
  <rect x="370.0" y="0.0" width="3.875968992248062" height="10.0" style="fill:cyan;opacity:0.3;"/>
  <text x="370.0" y="10.0" transform="matrix(6.123233995736766E-17,-1.0,1.0,6.123233995736766E-17,360.0,380.0)" style="font-size:1.0000000000000013px;">Romania</text>
  <rect x="374.0" y="5.0" width="3.875968992248062" height="5.0" style="fill:cyan;opacity:0.3;"/>
  <text x="374.0" y="10.0" transform="matrix(6.123233995736766E-17,-1.0,1.0,6.123233995736766E-17,364.0,384.0)" style="font-size:1.0000000000000013px;">United States;</text>
  <rect x="378.0" y="5.0" width="3.875968992248062" height="5.0" style="fill:cyan;opacity:0.3;"/>
  <text x="378.0" y="10.0" transform="matrix(6.123233995736766E-17,-1.0,1.0,6.123233995736766E-17,368.0,388.0)" style="font-size:1.0000000000000013px;">Mali</text>
  <rect x="382.0" y="5.0" width="3.875968992248062" height="5.0" style="fill:cyan;opacity:0.3;"/>
  <text x="382.0" y="10.0" transform="matrix(6.123233995736766E-17,-1.0,1.0,6.123233995736766E-17,372.0,392.0)" style="font-size:1.0000000000000013px;">Sierra Leone.</text>
  <rect x="385.0" y="5.0" width="3.875968992248062" height="5.0" style="fill:cyan;opacity:0.3;"/>
  <text x="385.0" y="10.0" transform="matrix(6.123233995736766E-17,-1.0,1.0,6.123233995736766E-17,375.0,395.0)" style="font-size:1.0000000000000013px;">Argentina</text>
  <rect x="389.0" y="5.0" width="3.875968992248062" height="5.0" style="fill:cyan;opacity:0.3;"/>
  <text x="389.0" y="10.0" transform="matrix(6.123233995736766E-17,-1.0,1.0,6.123233995736766E-17,379.0,399.0)" style="font-size:1.0000000000000013px;">Zambia</text>
  <rect x="393.0" y="5.0" width="3.875968992248062" height="5.0" style="fill:cyan;opacity:0.3;"/>
  <text x="393.0" y="10.0" transform="matrix(6.123233995736766E-17,-1.0,1.0,6.123233995736766E-17,383.0,403.0)" style="font-size:1.0000000000000013px;">Belize</text>
  <rect x="397.0" y="5.0" width="3.875968992248062" height="5.0" style="fill:cyan;opacity:0.3;"/>
  <text x="397.0" y="10.0" transform="matrix(6.123233995736766E-17,-1.0,1.0,6.123233995736766E-17,387.0,407.0)" style="font-size:1.0000000000000013px;">Ghana</text>
  <rect x="401.0" y="5.0" width="3.875968992248062" height="5.0" style="fill:cyan;opacity:0.3;"/>
  <text x="401.0" y="10.0" transform="matrix(6.123233995736766E-17,-1.0,1.0,6.123233995736766E-17,391.0,411.0)" style="font-size:1.0000000000000013px;">Hong Kong.</text>
  <rect x="405.0" y="5.0" width="3.875968992248062" height="5.0" style="fill:cyan;opacity:0.3;"/>
  <text x="405.0" y="10.0" transform="matrix(6.123233995736766E-17,-1.0,1.0,6.123233995736766E-17,395.0,415.0)" style="font-size:1.0000000000000013px;">Comoros</text>
  <rect x="409.0" y="5.0" width="3.875968992248062" height="5.0" style="fill:cyan;opacity:0.3;"/>
  <text x="409.0" y="10.0" transform="matrix(6.123233995736766E-17,-1.0,1.0,6.123233995736766E-17,399.0,419.0)" style="font-size:1.0000000000000013px;">South Africa</text>
  <rect x="413.0" y="5.0" width="3.875968992248062" height="5.0" style="fill:cyan;opacity:0.3;"/>
  <text x="413.0" y="10.0" transform="matrix(6.123233995736766E-17,-1.0,1.0,6.123233995736766E-17,403.0,423.0)" style="font-size:1.0000000000000013px;">Georgia</text>
  <rect x="416.0" y="5.0" width="3.875968992248062" height="5.0" style="fill:cyan;opacity:0.3;"/>
  <text x="416.0" y="10.0" transform="matrix(6.123233995736766E-17,-1.0,1.0,6.123233995736766E-17,406.0,426.0)" style="font-size:1.0000000000000013px;">Jamaica</text>
  <rect x="420.0" y="5.0" width="3.875968992248062" height="5.0" style="fill:cyan;opacity:0.3;"/>
  <text x="420.0" y="10.0" transform="matrix(6.123233995736766E-17,-1.0,1.0,6.123233995736766E-17,410.0,430.0)" style="font-size:1.0000000000000013px;">Hong Kong</text>
  <rect x="424.0" y="5.0" width="3.875968992248062" height="5.0" style="fill:cyan;opacity:0.3;"/>
  <text x="424.0" y="10.0" transform="matrix(6.123233995736766E-17,-1.0,1.0,6.123233995736766E-17,414.0,434.0)" style="font-size:1.0000000000000013px;">United Kingdom,</text>
  <rect x="428.0" y="5.0" width="3.875968992248062" height="5.0" style="fill:cyan;opacity:0.3;"/>
  <text x="428.0" y="10.0" transform="matrix(6.123233995736766E-17,-1.0,1.0,6.123233995736766E-17,418.0,438.0)" style="font-size:1.0000000000000013px;">Costa Rica</text>
  <rect x="432.0" y="5.0" width="3.875968992248062" height="5.0" style="fill:cyan;opacity:0.3;"/>
  <text x="432.0" y="10.0" transform="matrix(6.123233995736766E-17,-1.0,1.0,6.123233995736766E-17,422.0,442.0)" style="font-size:1.0000000000000013px;">Sri Lanka</text>
  <rect x="436.0" y="5.0" width="3.875968992248062" height="5.0" style="fill:cyan;opacity:0.3;"/>
  <text x="436.0" y="10.0" transform="matrix(6.123233995736766E-17,-1.0,1.0,6.123233995736766E-17,426.0,446.0)" style="font-size:1.0000000000000013px;">Liberia</text>
  <rect x="440.0" y="5.0" width="3.875968992248062" height="5.0" style="fill:cyan;opacity:0.3;"/>
  <text x="440.0" y="10.0" transform="matrix(6.123233995736766E-17,-1.0,1.0,6.123233995736766E-17,430.0,450.0)" style="font-size:1.0000000000000013px;">Palau</text>
  <rect x="444.0" y="5.0" width="3.875968992248062" height="5.0" style="fill:cyan;opacity:0.3;"/>
  <text x="444.0" y="10.0" transform="matrix(6.123233995736766E-17,-1.0,1.0,6.123233995736766E-17,434.0,454.0)" style="font-size:1.0000000000000013px;">United Kingdom;</text>
  <rect x="447.0" y="5.0" width="3.875968992248062" height="5.0" style="fill:cyan;opacity:0.3;"/>
  <text x="447.0" y="10.0" transform="matrix(6.123233995736766E-17,-1.0,1.0,6.123233995736766E-17,437.0,457.0)" style="font-size:1.0000000000000013px;">Myanmar</text>
  <rect x="451.0" y="5.0" width="3.875968992248062" height="5.0" style="fill:cyan;opacity:0.3;"/>
  <text x="451.0" y="10.0" transform="matrix(6.123233995736766E-17,-1.0,1.0,6.123233995736766E-17,441.0,461.0)" style="font-size:1.0000000000000013px;">Malaysia</text>
  <rect x="455.0" y="5.0" width="3.875968992248062" height="5.0" style="fill:cyan;opacity:0.3;"/>
  <text x="455.0" y="10.0" transform="matrix(6.123233995736766E-17,-1.0,1.0,6.123233995736766E-17,445.0,465.0)" style="font-size:1.0000000000000013px;">Puerto Rico.</text>
  <rect x="459.0" y="5.0" width="3.875968992248062" height="5.0" style="fill:cyan;opacity:0.3;"/>
  <text x="459.0" y="10.0" transform="matrix(6.123233995736766E-17,-1.0,1.0,6.123233995736766E-17,449.0,469.0)" style="font-size:1.0000000000000013px;">Mozambique</text>
  <rect x="463.0" y="5.0" width="3.875968992248062" height="5.0" style="fill:cyan;opacity:0.3;"/>
  <text x="463.0" y="10.0" transform="matrix(6.123233995736766E-17,-1.0,1.0,6.123233995736766E-17,453.0,473.0)" style="font-size:1.0000000000000013px;">Russian Federat</text>
  <rect x="467.0" y="5.0" width="3.875968992248062" height="5.0" style="fill:cyan;opacity:0.3;"/>
  <text x="467.0" y="10.0" transform="matrix(6.123233995736766E-17,-1.0,1.0,6.123233995736766E-17,457.0,477.0)" style="font-size:1.0000000000000013px;">Senegal</text>
  <rect x="471.0" y="5.0" width="3.875968992248062" height="5.0" style="fill:cyan;opacity:0.3;"/>
  <text x="471.0" y="10.0" transform="matrix(6.123233995736766E-17,-1.0,1.0,6.123233995736766E-17,461.0,481.0)" style="font-size:1.0000000000000013px;">Russian Federat</text>
  <rect x="475.0" y="5.0" width="3.875968992248062" height="5.0" style="fill:cyan;opacity:0.3;"/>
  <text x="475.0" y="10.0" transform="matrix(6.123233995736766E-17,-1.0,1.0,6.123233995736766E-17,465.0,485.0)" style="font-size:1.0000000000000013px;">Syrian Arab Rep</text>
  <rect x="478.0" y="5.0" width="3.875968992248062" height="5.0" style="fill:cyan;opacity:0.3;"/>
  <text x="478.0" y="10.0" transform="matrix(6.123233995736766E-17,-1.0,1.0,6.123233995736766E-17,468.0,488.0)" style="font-size:1.0000000000000013px;">Costa Rica,</text>
  <rect x="482.0" y="5.0" width="3.875968992248062" height="5.0" style="fill:cyan;opacity:0.3;"/>
  <text x="482.0" y="10.0" transform="matrix(6.123233995736766E-17,-1.0,1.0,6.123233995736766E-17,471.99999999999994,492.0)" style="font-size:1.0000000000000013px;">Burkina Faso.</text>
  <rect x="486.0" y="5.0" width="3.875968992248062" height="5.0" style="fill:cyan;opacity:0.3;"/>
  <text x="486.0" y="10.0" transform="matrix(6.123233995736766E-17,-1.0,1.0,6.123233995736766E-17,475.99999999999994,496.0)" style="font-size:1.0000000000000013px;">Serbia</text>
  <rect x="490.0" y="5.0" width="3.875968992248062" height="5.0" style="fill:cyan;opacity:0.3;"/>
  <text x="490.0" y="10.0" transform="matrix(6.123233995736766E-17,-1.0,1.0,6.123233995736766E-17,479.99999999999994,500.0)" style="font-size:1.0000000000000013px;">Togo</text>
  <rect x="494.0" y="5.0" width="3.875968992248062" height="5.0" style="fill:cyan;opacity:0.3;"/>
  <text x="494.0" y="10.0" transform="matrix(6.123233995736766E-17,-1.0,1.0,6.123233995736766E-17,483.99999999999994,504.0)" style="font-size:1.0000000000000013px;">Bangladesh</text>
  <rect x="498.0" y="5.0" width="3.875968992248062" height="5.0" style="fill:cyan;opacity:0.3;"/>
  <text x="498.0" y="10.0" transform="matrix(6.123233995736766E-17,-1.0,1.0,6.123233995736766E-17,487.99999999999994,508.0)" style="font-size:1.0000000000000013px;">Equatorial Guin</text>
  <rect x="502.0" y="5.0" width="3.875968992248062" height="5.0" style="fill:cyan;opacity:0.3;"/>
  <text x="502.0" y="10.0" transform="matrix(6.123233995736766E-17,-1.0,1.0,6.123233995736766E-17,491.99999999999994,512.0)" style="font-size:1.0000000000000013px;">Suriname</text>
  <rect x="506.0" y="5.0" width="3.875968992248062" height="5.0" style="fill:cyan;opacity:0.3;"/>
  <text x="506.0" y="10.0" transform="matrix(6.123233995736766E-17,-1.0,1.0,6.123233995736766E-17,495.99999999999994,516.0)" style="font-size:1.0000000000000013px;">Indonesia</text>
 </g>
</svg>
