<?xml version="1.0" encoding="UTF-8"?>
<svg height="20.0" width="519.433962264151" xmlns="http://www.w3.org/2000/svg">
 <g>
  <rect x="10.0" y="-215.0" width="9.433962264150944" height="225.0" style="fill:cyan;opacity:0.3;"/>
  <text x="10.0" y="10.0" transform="matrix(6.123233995736766E-17,-1.0,1.0,6.123233995736766E-17,0.0,20.0)" style="font-size:1.0000000000000013px;">Qatar</text>
  <rect x="19.0" y="-186.0" width="9.433962264150944" height="196.0" style="fill:cyan;opacity:0.3;"/>
  <text x="19.0" y="10.0" transform="matrix(6.123233995736766E-17,-1.0,1.0,6.123233995736766E-17,8.999999999999998,29.0)" style="font-size:1.0000000000000013px;">Sudan</text>
  <rect x="28.0" y="-186.0" width="9.433962264150944" height="196.0" style="fill:cyan;opacity:0.3;"/>
  <text x="28.0" y="10.0" transform="matrix(6.123233995736766E-17,-1.0,1.0,6.123233995736766E-17,18.0,38.0)" style="font-size:1.0000000000000013px;">Iraq</text>
  <rect x="38.0" y="-158.0" width="9.433962264150944" height="168.0" style="fill:cyan;opacity:0.3;"/>
  <text x="38.0" y="10.0" transform="matrix(6.123233995736766E-17,-1.0,1.0,6.123233995736766E-17,28.0,48.0)" style="font-size:1.0000000000000013px;">Denmark</text>
  <rect x="47.0" y="-130.0" width="9.433962264150944" height="140.0" style="fill:cyan;opacity:0.3;"/>
  <text x="47.0" y="10.0" transform="matrix(6.123233995736766E-17,-1.0,1.0,6.123233995736766E-17,37.0,57.0)" style="font-size:1.0000000000000013px;">United States,</text>
  <rect x="57.0" y="-130.0" width="9.433962264150944" height="140.0" style="fill:cyan;opacity:0.3;"/>
  <text x="57.0" y="10.0" transform="matrix(6.123233995736766E-17,-1.0,1.0,6.123233995736766E-17,47.0,67.0)" style="font-size:1.0000000000000013px;">Morocco</text>
  <rect x="66.0" y="-130.0" width="9.433962264150944" height="140.0" style="fill:cyan;opacity:0.3;"/>
  <text x="66.0" y="10.0" transform="matrix(6.123233995736766E-17,-1.0,1.0,6.123233995736766E-17,56.0,76.0)" style="font-size:1.0000000000000013px;">Saudi Arabia,</text>
  <rect x="76.0" y="-130.0" width="9.433962264150944" height="140.0" style="fill:cyan;opacity:0.3;"/>
  <text x="76.0" y="10.0" transform="matrix(6.123233995736766E-17,-1.0,1.0,6.123233995736766E-17,66.0,86.0)" style="font-size:1.0000000000000013px;">Tunisia</text>
  <rect x="85.0" y="-102.0" width="9.433962264150944" height="112.0" style="fill:cyan;opacity:0.3;"/>
  <text x="85.0" y="10.0" transform="matrix(6.123233995736766E-17,-1.0,1.0,6.123233995736766E-17,75.0,95.0)" style="font-size:1.0000000000000013px;">Japan</text>
  <rect x="94.0" y="-74.0" width="9.433962264150944" height="84.0" style="fill:cyan;opacity:0.3;"/>
  <text x="94.0" y="10.0" transform="matrix(6.123233995736766E-17,-1.0,1.0,6.123233995736766E-17,84.0,104.0)" style="font-size:1.0000000000000013px;">Brazil</text>
  <rect x="104.0" y="-74.0" width="9.433962264150944" height="84.0" style="fill:cyan;opacity:0.3;"/>
  <text x="104.0" y="10.0" transform="matrix(6.123233995736766E-17,-1.0,1.0,6.123233995736766E-17,94.0,114.0)" style="font-size:1.0000000000000013px;">Germany</text>
  <rect x="113.0" y="-74.0" width="9.433962264150944" height="84.0" style="fill:cyan;opacity:0.3;"/>
  <text x="113.0" y="10.0" transform="matrix(6.123233995736766E-17,-1.0,1.0,6.123233995736766E-17,103.0,123.0)" style="font-size:1.0000000000000013px;">Yemen</text>
  <rect x="123.0" y="-74.0" width="9.433962264150944" height="84.0" style="fill:cyan;opacity:0.3;"/>
  <text x="123.0" y="10.0" transform="matrix(6.123233995736766E-17,-1.0,1.0,6.123233995736766E-17,113.0,133.0)" style="font-size:1.0000000000000013px;">Afghanistan</text>
  <rect x="132.0" y="-74.0" width="9.433962264150944" height="84.0" style="fill:cyan;opacity:0.3;"/>
  <text x="132.0" y="10.0" transform="matrix(6.123233995736766E-17,-1.0,1.0,6.123233995736766E-17,121.99999999999999,142.0)" style="font-size:1.0000000000000013px;">United States</text>
  <rect x="142.0" y="-74.0" width="9.433962264150944" height="84.0" style="fill:cyan;opacity:0.3;"/>
  <text x="142.0" y="10.0" transform="matrix(6.123233995736766E-17,-1.0,1.0,6.123233995736766E-17,132.0,152.0)" style="font-size:1.0000000000000013px;">Saudi Arabia</text>
  <rect x="151.0" y="-74.0" width="9.433962264150944" height="84.0" style="fill:cyan;opacity:0.3;"/>
  <text x="151.0" y="10.0" transform="matrix(6.123233995736766E-17,-1.0,1.0,6.123233995736766E-17,141.0,161.0)" style="font-size:1.0000000000000013px;">Pakistan</text>
  <rect x="160.0" y="-46.0" width="9.433962264150944" height="56.0" style="fill:cyan;opacity:0.3;"/>
  <text x="160.0" y="10.0" transform="matrix(6.123233995736766E-17,-1.0,1.0,6.123233995736766E-17,150.0,170.0)" style="font-size:1.0000000000000013px;">South Sudan</text>
  <rect x="170.0" y="-46.0" width="9.433962264150944" height="56.0" style="fill:cyan;opacity:0.3;"/>
  <text x="170.0" y="10.0" transform="matrix(6.123233995736766E-17,-1.0,1.0,6.123233995736766E-17,160.0,180.0)" style="font-size:1.0000000000000013px;">New Zealand</text>
  <rect x="179.0" y="-46.0" width="9.433962264150944" height="56.0" style="fill:cyan;opacity:0.3;"/>
  <text x="179.0" y="10.0" transform="matrix(6.123233995736766E-17,-1.0,1.0,6.123233995736766E-17,169.0,189.0)" style="font-size:1.0000000000000013px;">Turkey</text>
  <rect x="189.0" y="-46.0" width="9.433962264150944" height="56.0" style="fill:cyan;opacity:0.3;"/>
  <text x="189.0" y="10.0" transform="matrix(6.123233995736766E-17,-1.0,1.0,6.123233995736766E-17,179.0,199.0)" style="font-size:1.0000000000000013px;">Czech Republic,</text>
  <rect x="198.0" y="-46.0" width="9.433962264150944" height="56.0" style="fill:cyan;opacity:0.3;"/>
  <text x="198.0" y="10.0" transform="matrix(6.123233995736766E-17,-1.0,1.0,6.123233995736766E-17,188.0,208.0)" style="font-size:1.0000000000000013px;">Egypt</text>
  <rect x="208.0" y="-46.0" width="9.433962264150944" height="56.0" style="fill:cyan;opacity:0.3;"/>
  <text x="208.0" y="10.0" transform="matrix(6.123233995736766E-17,-1.0,1.0,6.123233995736766E-17,198.0,218.0)" style="font-size:1.0000000000000013px;">Somalia</text>
  <rect x="217.0" y="-46.0" width="9.433962264150944" height="56.0" style="fill:cyan;opacity:0.3;"/>
  <text x="217.0" y="10.0" transform="matrix(6.123233995736766E-17,-1.0,1.0,6.123233995736766E-17,207.0,227.0)" style="font-size:1.0000000000000013px;">Netherlands</text>
  <rect x="226.0" y="-46.0" width="9.433962264150944" height="56.0" style="fill:cyan;opacity:0.3;"/>
  <text x="226.0" y="10.0" transform="matrix(6.123233995736766E-17,-1.0,1.0,6.123233995736766E-17,216.0,236.0)" style="font-size:1.0000000000000013px;">Jordan</text>
  <rect x="236.0" y="-46.0" width="9.433962264150944" height="56.0" style="fill:cyan;opacity:0.3;"/>
  <text x="236.0" y="10.0" transform="matrix(6.123233995736766E-17,-1.0,1.0,6.123233995736766E-17,226.0,246.0)" style="font-size:1.0000000000000013px;">Kuwait</text>
  <rect x="245.0" y="-46.0" width="9.433962264150944" height="56.0" style="fill:cyan;opacity:0.3;"/>
  <text x="245.0" y="10.0" transform="matrix(6.123233995736766E-17,-1.0,1.0,6.123233995736766E-17,235.0,255.0)" style="font-size:1.0000000000000013px;">United Arab Emi</text>
  <rect x="255.0" y="-46.0" width="9.433962264150944" height="56.0" style="fill:cyan;opacity:0.3;"/>
  <text x="255.0" y="10.0" transform="matrix(6.123233995736766E-17,-1.0,1.0,6.123233995736766E-17,244.99999999999997,265.0)" style="font-size:1.0000000000000013px;">Lebanon</text>
  <rect x="264.0" y="-46.0" width="9.433962264150944" height="56.0" style="fill:cyan;opacity:0.3;"/>
  <text x="264.0" y="10.0" transform="matrix(6.123233995736766E-17,-1.0,1.0,6.123233995736766E-17,253.99999999999997,274.0)" style="font-size:1.0000000000000013px;">Israel</text>
  <rect x="274.0" y="-18.0" width="9.433962264150944" height="28.0" style="fill:cyan;opacity:0.3;"/>
  <text x="274.0" y="10.0" transform="matrix(6.123233995736766E-17,-1.0,1.0,6.123233995736766E-17,264.0,284.0)" style="font-size:1.0000000000000013px;">Oman</text>
  <rect x="283.0" y="-18.0" width="9.433962264150944" height="28.0" style="fill:cyan;opacity:0.3;"/>
  <text x="283.0" y="10.0" transform="matrix(6.123233995736766E-17,-1.0,1.0,6.123233995736766E-17,273.0,293.0)" style="font-size:1.0000000000000013px;">Austria</text>
  <rect x="293.0" y="-18.0" width="9.433962264150944" height="28.0" style="fill:cyan;opacity:0.3;"/>
  <text x="293.0" y="10.0" transform="matrix(6.123233995736766E-17,-1.0,1.0,6.123233995736766E-17,283.0,303.0)" style="font-size:1.0000000000000013px;">Guatemala</text>
  <rect x="302.0" y="-18.0" width="9.433962264150944" height="28.0" style="fill:cyan;opacity:0.3;"/>
  <text x="302.0" y="10.0" transform="matrix(6.123233995736766E-17,-1.0,1.0,6.123233995736766E-17,292.0,312.0)" style="font-size:1.0000000000000013px;">Argentina</text>
  <rect x="311.0" y="-18.0" width="9.433962264150944" height="28.0" style="fill:cyan;opacity:0.3;"/>
  <text x="311.0" y="10.0" transform="matrix(6.123233995736766E-17,-1.0,1.0,6.123233995736766E-17,301.0,321.0)" style="font-size:1.0000000000000013px;">Saudi Arabia.</text>
  <rect x="321.0" y="-18.0" width="9.433962264150944" height="28.0" style="fill:cyan;opacity:0.3;"/>
  <text x="321.0" y="10.0" transform="matrix(6.123233995736766E-17,-1.0,1.0,6.123233995736766E-17,311.0,331.0)" style="font-size:1.0000000000000013px;">Bahrain</text>
  <rect x="330.0" y="-18.0" width="9.433962264150944" height="28.0" style="fill:cyan;opacity:0.3;"/>
  <text x="330.0" y="10.0" transform="matrix(6.123233995736766E-17,-1.0,1.0,6.123233995736766E-17,320.0,340.0)" style="font-size:1.0000000000000013px;">United Arab Emi</text>
  <rect x="340.0" y="-18.0" width="9.433962264150944" height="28.0" style="fill:cyan;opacity:0.3;"/>
  <text x="340.0" y="10.0" transform="matrix(6.123233995736766E-17,-1.0,1.0,6.123233995736766E-17,330.0,350.0)" style="font-size:1.0000000000000013px;">India</text>
  <rect x="349.0" y="-18.0" width="9.433962264150944" height="28.0" style="fill:cyan;opacity:0.3;"/>
  <text x="349.0" y="10.0" transform="matrix(6.123233995736766E-17,-1.0,1.0,6.123233995736766E-17,339.0,359.0)" style="font-size:1.0000000000000013px;">Comoros</text>
  <rect x="359.0" y="-18.0" width="9.433962264150944" height="28.0" style="fill:cyan;opacity:0.3;"/>
  <text x="359.0" y="10.0" transform="matrix(6.123233995736766E-17,-1.0,1.0,6.123233995736766E-17,349.0,369.0)" style="font-size:1.0000000000000013px;">South Africa</text>
  <rect x="368.0" y="-18.0" width="9.433962264150944" height="28.0" style="fill:cyan;opacity:0.3;"/>
  <text x="368.0" y="10.0" transform="matrix(6.123233995736766E-17,-1.0,1.0,6.123233995736766E-17,358.0,378.0)" style="font-size:1.0000000000000013px;">Italy</text>
  <rect x="377.0" y="-18.0" width="9.433962264150944" height="28.0" style="fill:cyan;opacity:0.3;"/>
  <text x="377.0" y="10.0" transform="matrix(6.123233995736766E-17,-1.0,1.0,6.123233995736766E-17,367.0,387.0)" style="font-size:1.0000000000000013px;">Fiji</text>
  <rect x="387.0" y="-18.0" width="9.433962264150944" height="28.0" style="fill:cyan;opacity:0.3;"/>
  <text x="387.0" y="10.0" transform="matrix(6.123233995736766E-17,-1.0,1.0,6.123233995736766E-17,377.0,397.0)" style="font-size:1.0000000000000013px;">Sierra Leone</text>
  <rect x="396.0" y="-18.0" width="9.433962264150944" height="28.0" style="fill:cyan;opacity:0.3;"/>
  <text x="396.0" y="10.0" transform="matrix(6.123233995736766E-17,-1.0,1.0,6.123233995736766E-17,386.0,406.0)" style="font-size:1.0000000000000013px;">South Sudan.</text>
  <rect x="406.0" y="-18.0" width="9.433962264150944" height="28.0" style="fill:cyan;opacity:0.3;"/>
  <text x="406.0" y="10.0" transform="matrix(6.123233995736766E-17,-1.0,1.0,6.123233995736766E-17,396.0,416.0)" style="font-size:1.0000000000000013px;">Libya</text>
  <rect x="415.0" y="-18.0" width="9.433962264150944" height="28.0" style="fill:cyan;opacity:0.3;"/>
  <text x="415.0" y="10.0" transform="matrix(6.123233995736766E-17,-1.0,1.0,6.123233995736766E-17,405.0,425.0)" style="font-size:1.0000000000000013px;">Costa Rica,</text>
  <rect x="425.0" y="-18.0" width="9.433962264150944" height="28.0" style="fill:cyan;opacity:0.3;"/>
  <text x="425.0" y="10.0" transform="matrix(6.123233995736766E-17,-1.0,1.0,6.123233995736766E-17,415.0,435.0)" style="font-size:1.0000000000000013px;">Costa Rica</text>
  <rect x="434.0" y="-18.0" width="9.433962264150944" height="28.0" style="fill:cyan;opacity:0.3;"/>
  <text x="434.0" y="10.0" transform="matrix(6.123233995736766E-17,-1.0,1.0,6.123233995736766E-17,424.0,444.0)" style="font-size:1.0000000000000013px;">China</text>
  <rect x="443.0" y="-18.0" width="9.433962264150944" height="28.0" style="fill:cyan;opacity:0.3;"/>
  <text x="443.0" y="10.0" transform="matrix(6.123233995736766E-17,-1.0,1.0,6.123233995736766E-17,433.0,453.0)" style="font-size:1.0000000000000013px;">France</text>
  <rect x="453.0" y="-18.0" width="9.433962264150944" height="28.0" style="fill:cyan;opacity:0.3;"/>
  <text x="453.0" y="10.0" transform="matrix(6.123233995736766E-17,-1.0,1.0,6.123233995736766E-17,443.0,463.0)" style="font-size:1.0000000000000013px;">South Africa,</text>
  <rect x="462.0" y="-18.0" width="9.433962264150944" height="28.0" style="fill:cyan;opacity:0.3;"/>
  <text x="462.0" y="10.0" transform="matrix(6.123233995736766E-17,-1.0,1.0,6.123233995736766E-17,452.0,472.0)" style="font-size:1.0000000000000013px;">Switzerland</text>
  <rect x="472.0" y="-18.0" width="9.433962264150944" height="28.0" style="fill:cyan;opacity:0.3;"/>
  <text x="472.0" y="10.0" transform="matrix(6.123233995736766E-17,-1.0,1.0,6.123233995736766E-17,462.0,482.0)" style="font-size:1.0000000000000013px;">Spain</text>
  <rect x="481.0" y="-18.0" width="9.433962264150944" height="28.0" style="fill:cyan;opacity:0.3;"/>
  <text x="481.0" y="10.0" transform="matrix(6.123233995736766E-17,-1.0,1.0,6.123233995736766E-17,470.99999999999994,491.0)" style="font-size:1.0000000000000013px;">Norway</text>
  <rect x="491.0" y="-18.0" width="9.433962264150944" height="28.0" style="fill:cyan;opacity:0.3;"/>
  <text x="491.0" y="10.0" transform="matrix(6.123233995736766E-17,-1.0,1.0,6.123233995736766E-17,480.99999999999994,501.0)" style="font-size:1.0000000000000013px;">Mexico</text>
  <rect x="500.0" y="-18.0" width="9.433962264150944" height="28.0" style="fill:cyan;opacity:0.3;"/>
  <text x="500.0" y="10.0" transform="matrix(6.123233995736766E-17,-1.0,1.0,6.123233995736766E-17,489.99999999999994,510.0)" style="font-size:1.0000000000000013px;">Australia</text>
 </g>
</svg>
